<?xml version="1.0" encoding="UTF-8" standalone="no"?>
<!DOCTYPE svg PUBLIC "-//W3C//DTD SVG 1.1//EN" "http://www.w3.org/Graphics/SVG/1.1/DTD/svg11.dtd">
<svg width="100%" height="100%" viewBox="0 0 1200 320" version="1.1" xmlns="http://www.w3.org/2000/svg" xmlns:xlink="http://www.w3.org/1999/xlink" xml:space="preserve" xmlns:serif="http://www.serif.com/" style="fill-rule:evenodd;clip-rule:evenodd;stroke-linejoin:round;stroke-miterlimit:2;">
    <rect x="0" y="0" width="1200" height="320" style="fill:white;"/>
    <g transform="matrix(1,0,0,1,119.478,66.376)">
        <path d="M157.979,80.216C149.55,94.664 141.308,108.615 130.993,108.615C128.038,108.615 122.797,105.828 124.828,98.14L134.552,88.368C135.214,87.63 135.718,86.765 135.247,85.663L129.091,72.726C128.741,71.96 128.059,71.993 127.322,72.726L114.314,85.667C113.615,86.367 113.307,87.349 113.76,88.401L117.873,97.97C116.283,104.287 112.154,108.893 107.138,108.553C97.818,107.936 90.255,90.306 101.473,65.415C103.358,61.24 104.07,57.723 103.874,54.683C125.141,45.043 152.509,34.692 162.924,47.786C169.172,55.627 166.258,66.008 157.979,80.216ZM67.673,108.553C62.665,108.893 58.528,104.287 56.938,97.97L61.042,88.401C61.504,87.349 61.192,86.367 60.501,85.667L47.485,72.726C46.744,71.993 46.074,71.96 45.716,72.726L39.555,85.663C39.085,86.765 39.601,87.63 40.254,88.368L49.978,98.14C52.005,105.828 46.769,108.615 43.813,108.615C33.499,108.615 25.257,94.664 16.832,80.216C8.549,66.008 5.639,55.627 11.879,47.786C22.297,34.692 49.666,45.043 70.928,54.683C70.728,57.723 71.448,61.24 73.33,65.415C84.56,90.306 76.989,107.936 67.673,108.553ZM102.459,44.766C100.906,45.255 99.304,44.807 97.901,43.689C96.694,42.691 95.42,41.837 94.167,41.104C98.055,38.809 100.673,34.592 100.673,29.771C100.673,23.176 95.816,17.725 89.46,16.735L94.338,10.476C94.817,9.855 94.817,8.844 94.338,8.222L88.282,0.447C88.044,0.133 87.732,-0 87.403,-0C87.087,-0 86.766,0.133 86.517,0.447L80.477,8.222C79.99,8.844 79.99,9.855 80.477,10.476L85.343,16.739C78.991,17.729 74.137,23.176 74.137,29.771C74.137,34.592 76.747,38.809 80.648,41.104C79.39,41.837 78.117,42.691 76.91,43.689C75.507,44.807 73.904,45.255 72.352,44.766C44.767,35.984 20.403,27.53 6.567,41.03C-10.004,57.218 9.281,83.38 15.358,94.142C19.613,101.706 22.639,110.5 22.639,117.484L152.172,117.484C152.172,110.5 155.19,101.706 159.444,94.142C165.521,83.38 184.819,57.218 168.235,41.03C154.395,27.53 130.048,35.984 102.459,44.766ZM22.647,137.268L152.168,137.268L152.168,126.655L22.647,126.655L22.647,137.268ZM921.309,102.269L900.48,102.269C900.03,102.269 899.914,101.926 900.03,101.478L910.445,73.762C910.557,73.319 910.778,72.747 911.119,72.747C911.46,72.747 911.569,73.319 911.693,73.762L921.883,101.594C921.987,101.926 921.883,102.269 921.309,102.269ZM959.575,135.284C958.218,135.284 956.52,135.168 954.821,134.828C952.445,134.273 949.16,132.686 944.852,122.55C937.609,105.422 919.498,59.459 916.78,53.262C915.656,50.673 914.974,49.654 913.958,49.654C912.826,49.654 912.143,50.897 910.778,54.165L882.364,124.915C880.108,130.545 877.952,134.372 872.745,135.043C871.846,135.168 870.264,135.284 869.236,135.284C868.324,135.284 867.875,135.499 867.875,136.178C867.875,137.081 868.562,137.309 870.031,137.309C875.917,137.309 882.148,136.965 883.384,136.965C886.902,136.965 891.768,137.309 895.389,137.309C896.634,137.309 897.312,137.081 897.312,136.178C897.312,135.499 896.971,135.284 895.61,135.284L893.915,135.284C890.402,135.284 889.382,133.813 889.382,131.779C889.382,130.433 889.953,127.732 891.089,124.915L897.204,108.806C897.42,108.127 897.653,107.911 898.215,107.911L923.465,107.911C924.027,107.911 924.368,108.127 924.593,108.686L933.655,132.575C934.221,133.921 933.43,134.94 932.627,135.168C931.503,135.284 931.049,135.499 931.049,136.178C931.049,136.965 932.398,136.965 934.442,137.081C943.499,137.309 951.774,137.309 955.833,137.309C960.033,137.309 961.044,137.081 961.044,136.178C961.044,135.387 960.478,135.284 959.575,135.284ZM727.989,135.284C726.52,135.284 724.251,135.168 720.967,134.149C717.579,133.138 716.442,129.865 715.418,122.77L705.116,53.158C704.783,50.789 704.105,49.654 703.077,49.654C702.065,49.654 701.382,50.557 700.592,52.363L669.797,116.689L638.899,53.158C637.425,50.221 636.747,49.654 635.84,49.654C634.936,49.654 634.249,50.673 633.916,52.587L622.711,126.046C622.141,129.865 621.242,134.273 618.061,134.94C616.376,135.284 615.581,135.284 614.673,135.284C613.537,135.284 612.858,135.499 612.858,136.066C612.858,137.081 613.766,137.309 614.898,137.309C618.519,137.309 623.956,136.957 626.103,136.957C628.143,136.957 633.238,137.309 637.992,137.309C639.69,137.309 640.706,137.081 640.706,136.066C640.706,135.499 639.915,135.284 639.011,135.284C637.875,135.284 636.297,135.168 634.249,134.712C632.326,134.273 630.857,133.254 630.857,131.104C630.857,129.31 630.974,127.84 631.202,125.818L637.084,80.986L637.534,80.986C641.496,89.42 648.294,103.624 649.314,105.985C650.666,109.141 659.62,126.386 662.326,131.556C664.14,134.94 665.277,137.193 666.288,137.193C667.312,137.193 667.874,136.178 670.48,130.884L695.164,79.735L695.609,79.735L702.411,129.31C702.86,132.45 702.519,133.921 701.84,134.149C701.049,134.48 700.592,134.828 700.592,135.387C700.592,136.066 701.274,136.402 703.88,136.63C708.4,136.965 724.027,137.309 726.861,137.309C728.447,137.309 729.8,136.965 729.8,136.066C729.8,135.387 729.005,135.284 727.989,135.284ZM777.89,132.575C775.288,132.575 772.686,132.45 769.631,131.224C766.01,129.758 765.668,127.84 765.668,120.409L765.668,93.716C765.668,93.148 765.893,92.924 766.347,92.924C768.045,92.924 769.181,92.924 771.217,93.028C775.629,93.256 778.235,94.039 780.612,95.737C789.216,101.706 791.588,111.175 791.588,118.147C791.588,129.865 782.984,132.575 777.89,132.575ZM765.668,58.895C765.668,57.653 765.893,57.209 766.688,56.982C767.816,56.754 768.836,56.754 770.414,56.754C780.158,56.754 784.579,66.666 784.579,74.218C784.579,79.735 782.876,83.795 779.933,86.16C778.01,87.85 775.513,88.302 771.779,88.302C769.181,88.302 767.479,88.181 766.459,87.958C766.01,87.85 765.668,87.622 765.668,86.715L765.668,58.895ZM784.912,88.749C791.139,83.795 796.463,78.269 796.463,69.044C796.463,63.067 792.837,52.139 772.345,52.139C768.495,52.139 764.082,52.466 758.534,52.466C756.269,52.466 749.139,52.139 743.145,52.139C741.442,52.139 740.643,52.363 740.643,53.158C740.643,53.933 741.326,54.165 742.571,54.165C744.152,54.165 746.084,54.273 746.983,54.492C750.721,55.291 751.632,57.093 751.857,60.921C752.086,64.537 752.086,67.685 752.086,84.81L752.086,104.643C752.086,115.007 752.086,123.909 751.516,128.631C751.062,131.903 750.496,134.372 748.24,134.828C747.212,135.043 745.855,135.284 744.152,135.284C742.799,135.284 742.337,135.611 742.337,136.178C742.337,136.965 743.145,137.309 744.606,137.309C749.139,137.309 756.269,136.965 758.875,136.965C762.268,136.965 772.57,137.641 775.288,137.641C796.121,137.641 805.512,125.143 805.512,113.077C805.512,99.896 794.194,91.905 784.912,88.749ZM504.762,119.725C503.859,119.725 503.642,120.409 503.517,121.415C503.293,123.565 501.94,126.713 500.583,128.18C497.752,131.224 493.328,131.328 487.329,131.328C478.501,131.328 475.566,130.545 473.635,128.846C471.254,126.829 471.254,119.058 471.254,104.635L471.254,84.81C471.254,67.685 471.254,64.529 471.487,60.921C471.712,56.982 472.615,55.06 475.67,54.5C477.027,54.281 478.842,54.173 480.082,54.173C481.448,54.173 482.126,53.933 482.126,53.158C482.126,52.363 481.331,52.139 479.745,52.139C475.329,52.139 467.066,52.495 464.352,52.495C461.297,52.495 454.158,52.139 448.843,52.139C447.14,52.139 446.354,52.363 446.354,53.158C446.354,53.933 447.028,54.173 448.272,54.173C449.742,54.173 451.099,54.281 452.01,54.5C455.744,55.283 456.656,57.093 456.881,60.921C457.109,64.529 457.109,67.685 457.109,84.81L457.109,104.635C457.109,115.007 457.109,123.909 456.539,128.631C456.085,131.895 455.519,134.372 453.255,134.828C452.235,135.043 450.874,135.284 449.184,135.284C447.823,135.284 447.369,135.611 447.369,136.178C447.369,136.957 448.164,137.309 449.638,137.309C454.158,137.309 461.297,136.957 463.903,136.957C473.073,136.957 480.536,137.641 496.841,137.641C502.726,137.641 503.293,137.081 503.971,134.6C504.878,131.328 505.669,122.881 505.669,121.643C505.669,120.288 505.561,119.725 504.762,119.725ZM856.744,135.284C855.046,135.284 852.561,135.043 850.971,134.828C847.578,134.372 846.787,132.351 846.442,129.302C845.984,124.464 845.984,115.558 845.984,104.635L845.984,84.81C845.984,67.685 845.984,64.529 846.209,60.929C846.442,56.982 847.345,55.06 850.405,54.492C851.762,54.273 852.661,54.165 853.801,54.165C854.933,54.165 855.608,53.933 855.608,53.034C855.608,52.363 854.709,52.139 853.231,52.139C848.931,52.139 842.246,52.471 839.424,52.471C836.131,52.471 829.009,52.139 824.697,52.139C822.895,52.139 821.983,52.363 821.983,53.034C821.983,53.933 822.67,54.165 823.798,54.165C825.159,54.165 826.633,54.273 827.873,54.616C830.366,55.184 831.494,57.093 831.727,60.929C831.952,64.529 831.952,67.685 831.952,84.81L831.952,104.635C831.952,115.558 831.952,124.464 831.382,129.194C831.045,132.459 830.366,134.372 828.102,134.828C827.082,135.043 825.717,135.284 824.031,135.284C822.67,135.284 822.22,135.611 822.22,136.178C822.22,136.957 823.003,137.309 824.485,137.309C829.009,137.309 836.131,136.957 838.741,136.957C841.797,136.957 848.931,137.309 856.411,137.309C857.647,137.309 858.559,136.957 858.559,136.178C858.559,135.611 857.989,135.284 856.744,135.284ZM604.358,52.139C599.942,52.139 592.803,52.471 591.455,52.471C591.338,52.471 584.208,52.139 578.434,52.139C576.844,52.139 576.062,52.363 576.062,53.158C576.062,53.933 576.736,54.165 577.976,54.165C579.229,54.165 581.148,54.273 582.06,54.492C585.794,55.283 586.697,57.093 586.922,60.929C587.146,64.529 587.146,67.685 587.146,84.81L587.146,98.889C587.146,110.496 586.809,120.64 580.578,126.821C576.062,131.328 569.943,132.914 564.964,132.914C561.114,132.914 555.907,132.459 550.808,128.283C545.272,123.789 541.979,116.912 541.979,100.579L541.979,84.81C541.979,67.685 541.979,64.529 542.204,60.929C542.437,56.982 543.34,55.06 546.4,54.492C547.757,54.273 548.435,54.165 549.684,54.165C550.808,54.165 551.486,53.933 551.486,53.158C551.486,52.363 550.695,52.139 548.997,52.139C544.922,52.139 537.796,52.471 535.078,52.471C531.673,52.471 524.546,52.139 518.548,52.139C516.85,52.139 516.055,52.363 516.055,53.158C516.055,53.933 516.742,54.165 517.978,54.165C519.564,54.165 521.499,54.273 522.399,54.492C526.132,55.283 527.04,57.093 527.26,60.929C527.489,64.529 527.489,67.685 527.489,84.81L527.489,101.25C527.489,117.588 531.797,125.926 537.571,131.104C545.829,138.548 556.693,138.879 562.7,138.879C570.055,138.879 578.209,137.641 586.247,130.773C595.754,122.658 597.003,109.369 597.003,96.864L597.003,84.81C597.003,67.685 597.003,64.529 597.224,60.929C597.457,56.982 598.356,55.06 601.415,54.492C602.772,54.273 603.451,54.165 604.7,54.165C606.057,54.165 606.735,53.933 606.735,53.158C606.735,52.363 605.94,52.139 604.358,52.139ZM388.59,133.254C366.858,133.254 353.837,114.655 353.837,91.234C353.837,63.178 368.66,55.971 381.689,55.971C400.254,55.971 414.864,71.629 414.864,96.864C414.864,129.414 396.516,133.254 388.59,133.254ZM384.973,50.553C351.007,50.553 338.211,75.452 338.211,94.718C338.211,114.655 351.34,138.879 383.837,138.879C412.591,138.879 430.707,118.482 430.707,92.692C430.707,66.894 413.158,50.553 384.973,50.553ZM319.95,112.323C318.864,112.323 318.593,112.865 318.186,115.024C317.649,117.439 315.892,121.353 313.59,123.901C308.175,130.097 300.869,131.448 288.823,131.448C270.695,131.448 246.203,115.558 246.203,83.517C246.203,70.456 248.78,57.665 258.662,48.647C264.606,43.254 272.327,40.288 284.09,40.288C296.536,40.288 307.088,43.925 311.559,48.647C314.947,52.143 316.704,56.853 316.837,61.02C316.837,62.909 317.107,63.99 318.186,63.99C319.405,63.99 319.672,62.909 319.809,60.896C320.084,58.204 319.95,50.797 320.221,46.348C320.487,41.638 320.9,40.019 320.9,38.946C320.9,38.146 320.35,37.471 318.864,37.326C314.801,36.925 310.477,35.711 305.332,35.04C299.109,34.236 294.101,33.706 285.714,33.706C265.551,33.706 252.697,39.083 242.965,47.964C229.969,59.811 227.118,75.697 227.118,84.859C227.118,97.924 230.648,113.002 243.91,124.576C256.222,135.217 271.786,139.248 290.322,139.248C298.98,139.248 309.261,138.32 314.664,136.153C316.97,135.217 317.52,134.546 318.186,132.26C319.547,127.674 321.17,115.96 321.17,114.34C321.17,113.275 320.9,112.323 319.95,112.323Z" style="fill-rule:nonzero;"/>
    </g>
</svg>
