<?xml version="1.0" encoding="UTF-8" standalone="no"?>
<!DOCTYPE svg PUBLIC "-//W3C//DTD SVG 1.1//EN" "http://www.w3.org/Graphics/SVG/1.1/DTD/svg11.dtd">
<svg width="100%" height="100%" viewBox="0 0 320 320" version="1.1" xmlns="http://www.w3.org/2000/svg" xmlns:xlink="http://www.w3.org/1999/xlink" xml:space="preserve" xmlns:serif="http://www.serif.com/" style="fill-rule:evenodd;clip-rule:evenodd;stroke-linejoin:round;stroke-miterlimit:2;">
    <g transform="matrix(1.28,0,0,1.6,3.90799e-14,-3.55271e-15)">
        <rect x="0" y="0" width="250" height="200" style="fill:white;"/>
    </g>
    <g transform="matrix(0.915289,0,0,0.915289,80.0003,97.1801)">
        <path d="M157.979,80.216C149.55,94.664 141.308,108.615 130.993,108.615C128.038,108.615 122.797,105.828 124.828,98.14L134.552,88.368C135.214,87.63 135.718,86.765 135.247,85.663L129.091,72.726C128.741,71.96 128.059,71.993 127.322,72.726L114.314,85.667C113.615,86.367 113.307,87.349 113.76,88.401L117.873,97.97C116.283,104.287 112.154,108.893 107.138,108.553C97.818,107.936 90.255,90.306 101.473,65.415C103.358,61.24 104.07,57.723 103.874,54.683C125.141,45.043 152.509,34.692 162.924,47.786C169.172,55.627 166.258,66.008 157.979,80.216ZM67.673,108.553C62.665,108.893 58.528,104.287 56.938,97.97L61.042,88.401C61.504,87.349 61.192,86.367 60.501,85.667L47.485,72.726C46.744,71.993 46.074,71.96 45.716,72.726L39.555,85.663C39.085,86.765 39.601,87.63 40.254,88.368L49.978,98.14C52.005,105.828 46.769,108.615 43.813,108.615C33.499,108.615 25.257,94.664 16.832,80.216C8.549,66.008 5.639,55.627 11.879,47.786C22.297,34.692 49.666,45.043 70.928,54.683C70.728,57.723 71.448,61.24 73.33,65.415C84.56,90.306 76.989,107.936 67.673,108.553ZM102.459,44.766C100.906,45.255 99.304,44.807 97.901,43.689C96.694,42.691 95.42,41.837 94.167,41.104C98.055,38.809 100.673,34.592 100.673,29.771C100.673,23.176 95.816,17.725 89.46,16.735L94.338,10.476C94.817,9.855 94.817,8.844 94.338,8.222L88.282,0.447C88.044,0.133 87.732,-0 87.403,-0C87.087,-0 86.766,0.133 86.517,0.447L80.477,8.222C79.99,8.844 79.99,9.855 80.477,10.476L85.343,16.739C78.991,17.729 74.137,23.176 74.137,29.771C74.137,34.592 76.747,38.809 80.648,41.104C79.39,41.837 78.117,42.691 76.91,43.689C75.507,44.807 73.904,45.255 72.352,44.766C44.767,35.984 20.403,27.53 6.567,41.03C-10.004,57.218 9.281,83.38 15.358,94.142C19.613,101.706 22.639,110.5 22.639,117.484L152.172,117.484C152.172,110.5 155.19,101.706 159.444,94.142C165.521,83.38 184.819,57.218 168.235,41.03C154.395,27.53 130.048,35.984 102.459,44.766ZM22.647,137.268L152.168,137.268L152.168,126.655L22.647,126.655L22.647,137.268Z" style="fill-rule:nonzero;"/>
    </g>
</svg>
