<?xml version="1.0" encoding="UTF-8" standalone="no"?>
<!DOCTYPE svg PUBLIC "-//W3C//DTD SVG 1.1//EN" "http://www.w3.org/Graphics/SVG/1.1/DTD/svg11.dtd">
<svg width="100%" height="100%" viewBox="0 0 200 200" version="1.1" xmlns="http://www.w3.org/2000/svg" xmlns:xlink="http://www.w3.org/1999/xlink" xml:space="preserve" xmlns:serif="http://www.serif.com/" style="fill-rule:evenodd;clip-rule:evenodd;stroke-linejoin:round;stroke-miterlimit:2;">
    <rect x="0" y="0" width="200" height="200" style="fill:white;"/>
    <g transform="matrix(1,0,0,1,17.0041,98)">
        <path d="M4,0L4,51.766L8.143,51.766L8.144,17.94L12.144,17.94L12.144,20C12.144,24.771 13.216,27.44 15.961,31.217C16.098,31.405 16.749,32.292 16.928,32.539C19.419,35.977 20.499,38.46 20.542,42.193C23.19,39.488 27.151,38.091 32.337,38.091L34.337,38.091L34.337,40.091C34.337,45.218 32.965,49.146 30.308,51.791C33.629,51.951 36.051,52.983 39.358,55.2L39.75,55.465C39.973,55.618 40.729,56.139 40.835,56.211C44.814,58.941 47.327,59.954 51.689,59.954L53.507,59.954L53.508,63.954L20.543,63.953L20.543,68.189C28.416,68.198 34.371,68.205 39.075,68.211L39.892,68.212C40.831,68.213 41.718,68.214 42.56,68.215L44.954,68.218C45.278,68.218 47.592,68.221 47.687,68.221C47.687,68.221 66.056,68.243 66.33,68.243C77.081,68.255 82.996,73.373 82.996,85L78.996,85C78.996,75.692 74.967,72.253 66.326,72.243C66.051,72.243 16.544,72.185 16.544,72.185L16.543,63.953L12.143,63.953L12.144,72.26L0,72.26L0,59.954L8.143,59.953L8.143,55.766L0,55.767L0,0L4,0ZM8.143,63.953L4,63.953L4,68.26L8.143,68.26L8.143,63.953ZM16.543,55.766L12.143,55.766L12.143,59.953L16.543,59.953L16.543,55.766ZM20.543,55.766L20.543,59.953L39.229,59.953L38.985,59.79L38.572,59.51C38.46,59.433 37.708,58.915 37.493,58.767C34.267,56.562 32.35,55.767 29.343,55.767L20.543,55.766ZM12.143,32.748L12.143,51.766L16.543,51.766L16.544,42.428C16.544,39.674 15.843,37.92 13.934,35.228L13.689,34.886C13.519,34.651 12.87,33.768 12.726,33.569C12.537,33.31 12.355,33.054 12.18,32.801L12.143,32.748ZM30.243,42.183L29.958,42.212C24.311,42.825 21.351,45.779 20.738,51.414L20.708,51.694L20.995,51.667C26.642,51.054 29.602,48.1 30.215,42.465L30.243,42.183Z" style="fill:rgb(107,90,46);fill-rule:nonzero;"/>
    </g>
    <g transform="matrix(-1,-1.22465e-16,1.22465e-16,-1,182.996,102)">
        <path d="M4,0L4,51.766L8.143,51.766L8.144,17.94L12.144,17.94L12.144,20C12.144,24.771 13.216,27.44 15.961,31.217C16.098,31.405 16.749,32.292 16.928,32.539C19.419,35.977 20.499,38.46 20.542,42.193C23.19,39.488 27.151,38.091 32.337,38.091L34.337,38.091L34.337,40.091C34.337,45.218 32.965,49.146 30.308,51.791C33.629,51.951 36.051,52.983 39.358,55.2L39.75,55.465C39.973,55.618 40.729,56.139 40.835,56.211C44.814,58.941 47.327,59.954 51.689,59.954L53.507,59.954L53.508,63.954L20.543,63.953L20.543,68.189C28.416,68.198 34.371,68.205 39.075,68.211L39.892,68.212C40.831,68.213 41.718,68.214 42.56,68.215L44.954,68.218C45.278,68.218 47.592,68.221 47.687,68.221C47.687,68.221 66.056,68.243 66.33,68.243C77.081,68.255 82.996,73.373 82.996,85L78.996,85C78.996,75.692 74.967,72.253 66.326,72.243C66.051,72.243 16.544,72.185 16.544,72.185L16.543,63.953L12.143,63.953L12.144,72.26L0,72.26L0,59.954L8.143,59.953L8.143,55.766L0,55.767L0,0L4,0ZM8.143,63.953L4,63.953L4,68.26L8.143,68.26L8.143,63.953ZM16.543,55.766L12.143,55.766L12.143,59.953L16.543,59.953L16.543,55.766ZM20.543,55.766L20.543,59.953L39.229,59.953L38.985,59.79L38.572,59.51C38.46,59.433 37.708,58.915 37.493,58.767C34.267,56.562 32.35,55.767 29.343,55.767L20.543,55.766ZM12.143,32.748L12.143,51.766L16.543,51.766L16.544,42.428C16.544,39.674 15.843,37.92 13.934,35.228L13.689,34.886C13.519,34.651 12.87,33.768 12.726,33.569C12.537,33.31 12.355,33.054 12.18,32.801L12.143,32.748ZM30.243,42.183L29.958,42.212C24.311,42.825 21.351,45.779 20.738,51.414L20.708,51.694L20.995,51.667C26.642,51.054 29.602,48.1 30.215,42.465L30.243,42.183Z" style="fill:rgb(107,90,46);fill-rule:nonzero;"/>
    </g>
</svg>
