<?xml version="1.0" encoding="UTF-8" standalone="no"?>
<!DOCTYPE svg PUBLIC "-//W3C//DTD SVG 1.1//EN" "http://www.w3.org/Graphics/SVG/1.1/DTD/svg11.dtd">
<svg width="100%" height="100%" viewBox="0 0 702 492" version="1.1" xmlns="http://www.w3.org/2000/svg" xmlns:xlink="http://www.w3.org/1999/xlink" xml:space="preserve" xmlns:serif="http://www.serif.com/" style="fill-rule:evenodd;clip-rule:evenodd;stroke-linejoin:round;stroke-miterlimit:2;">
    <rect x="0" y="0" width="702" height="492" fill="white"/>
    <g id="Artboard" transform="matrix(1,0,0,1,1.66089e-13,-3.57808e-05)">
        <g id="branches" transform="matrix(1,0,0,1,48.3085,41.2697)">
            <path id="Combined-Shape" d="M424.132,6.201C424.132,3.806 424.899,-0.454 426.381,0.039C427.863,0.532 426.008,2.976 426.008,6.201C426.008,11.098 427.177,12.263 425.312,17.893C422.715,25.73 424.178,34.927 425.312,38.044C426.445,41.16 427.291,49.1 425.312,57.266C425.285,57.375 425.258,57.483 425.23,57.59C429.019,56.616 432.964,56.047 437.003,55.837C447.009,55.314 457.494,49.032 467.666,42.272L468.936,41.425C469.57,41.001 470.203,40.575 470.834,40.15L472.094,39.301C480.062,33.928 487.763,28.739 494.804,26.355C513.559,20.004 533.741,24.792 533.03,26.855C532.318,28.919 513.769,22.548 496.079,29.346C487.219,32.751 474.766,42.992 462.285,51.004C469.393,52.247 481.08,63.638 502.981,63.638C512.224,63.638 517.714,63.302 522.052,63.978C527.883,64.888 533.5,68.847 532.116,70.147C530.731,71.447 526.928,66.899 521.479,66.527C517.432,66.251 512.349,66.079 502.981,66.939C482.727,68.799 468.69,55.948 457.074,54.199C450.312,58.128 443.689,61.022 437.78,61.417C419.505,62.641 405.333,71.337 399.173,92.926C396.634,101.828 393.711,109.642 390.344,116.098C399.893,117.044 406.016,120.747 413.597,117.877C422.814,114.386 441.655,106.508 452.107,109.637C462.559,112.766 471.721,115.176 483.371,112.406C495.02,109.637 505.207,114.817 503.684,116.347C502.161,117.877 493.911,113.505 484.42,115.962C474.929,118.419 464.821,118.952 451.75,115.962C445.106,114.442 438.751,115.913 432.731,118.262C439.966,119.27 444.365,122.39 448.437,125.813L449.03,126.316L449.672,126.866C449.993,127.141 450.313,127.418 450.634,127.694L451.277,128.245C453.75,130.357 456.32,132.424 459.556,134.035C469.686,139.079 482.799,137.993 492.835,142.683C502.871,147.372 507.655,154.221 505.745,155.027C503.835,155.833 501.177,149.528 491.766,145.349C482.356,141.171 471.434,143.751 458.287,137.716C454.189,135.835 450.989,133.582 447.977,131.371L447.285,130.862C441.195,126.374 435.66,122.195 424.669,121.838C421.766,123.217 418.956,124.571 416.244,125.622C406.076,129.564 394.595,125.183 384.566,125.235C381.128,129.633 377.311,132.838 373.073,134.661C361.544,139.621 346.71,156.544 338.116,168.636C329.522,180.727 306.232,189.219 284.967,205.735C281.448,208.468 278.663,211.639 276.385,215.098C279.895,213.953 284.524,212.935 292.586,211.852C310.551,209.438 324.535,219.431 337.076,217.709C338.129,217.565 339.169,217.356 340.198,217.092C348.393,212.026 356.624,191.503 369.454,186.332C383.093,180.834 398.963,181.476 398.963,183.706C398.963,185.935 384.645,183.626 371.842,190.065C365.835,193.085 361.374,199.51 357.083,205.887L356.406,206.893C355.386,208.411 354.372,209.915 353.344,211.36L353.469,211.291L354.908,210.493C360.663,207.292 366.363,204.045 372.416,202.999C384.075,200.984 392.567,205.446 404.123,206.278C414.678,207.038 423.819,205.157 424.465,207.128C425.176,209.295 414.822,210.803 403.051,209.835C392.392,208.959 384.287,205.908 373.739,208.059C367.044,209.425 362.4,212.349 357.808,215.361L356.331,216.33C351.398,219.559 346.278,222.709 338.512,223.973C331.047,225.188 324.307,223.855 317.659,222.379L315.36,221.866C308.725,220.389 302.109,219.048 294.88,220.247C280.28,222.67 276.78,224.703 268.402,233.302C267.688,235.598 267.022,237.909 266.36,240.205L265.988,241.493C263.571,249.853 261.097,257.955 256.461,264.398C276.73,263.075 293.1,259.116 313.099,268.935C320.902,272.766 328.357,276.136 335.803,278.836C346.749,275.775 356.892,263.963 371.742,259.168C386.867,254.283 402.749,260.094 411.013,257.473C419.278,254.852 428.194,242.63 439.242,239.108C450.289,235.587 469.882,235.812 469.44,238.424C468.999,241.037 453.487,237.403 440.65,242.599C427.813,247.795 422.719,259.99 413.212,262.757C403.706,265.523 388.49,260.719 375.006,266.194C363.618,270.817 357.34,278.805 350.24,283.156C362.577,286.008 375.466,286.721 390.369,284.385C417.456,280.138 447.447,281.522 474.668,288.363L474.766,288.348C481.99,287.502 488.344,283.674 496.74,276.196L496.722,276.21L496.744,276.19C497.016,275.937 499.155,273.985 501.355,272.005L501.844,271.566C503.555,270.03 505.222,268.551 505.997,267.916C509.426,265.106 512.165,263.509 514.862,263.022C518.972,262.281 522.239,262.573 530.023,263.901C532.448,264.314 533.634,264.504 535.023,264.687C539.687,265.301 543.208,265.241 546.453,264.307C549.166,263.526 551.812,262.504 555.02,261.067C555.695,260.765 556.375,260.453 557.251,260.047C557.225,260.059 558.922,259.271 559.389,259.056C561.091,258.272 562.277,257.754 563.407,257.315C566.448,256.136 568.759,255.697 570.87,256.124C571.953,256.343 572.653,257.399 572.434,258.481C572.215,259.564 571.16,260.264 570.077,260.045C568.892,259.805 567.243,260.118 564.853,261.045C563.818,261.446 562.696,261.937 561.062,262.689C560.603,262.901 558.912,263.686 558.933,263.677C558.042,264.089 557.348,264.407 556.655,264.717C553.291,266.225 550.48,267.31 547.56,268.151C543.694,269.264 539.662,269.333 534.501,268.653C533.046,268.462 531.824,268.266 529.35,267.844C522.044,266.597 519.055,266.33 515.572,266.959C513.71,267.295 511.477,268.597 508.532,271.011C507.83,271.585 506.321,272.923 504.726,274.354L504.289,274.746L503.852,275.139C501.668,277.107 499.571,279.022 499.394,279.187L499.385,279.197L498.895,279.631C492.892,284.926 487.776,288.496 482.528,290.516C482.736,290.576 482.943,290.638 483.15,290.7C512.519,299.525 545.469,304.453 567.021,299.45C579.491,296.556 590.755,295.087 599.508,295.42C601.528,295.497 603.636,295.66 605.673,295.887L606.349,295.965C612.855,296.741 618.442,298.164 617.799,299.53C616.935,301.367 607.178,298.286 599.508,298.286C591.839,298.286 579.543,301.184 568.165,304.453C559.215,307.024 545.778,308.012 530.403,307.082C532.48,308.515 534.371,309.989 536.147,311.534C537.622,312.817 538.958,314.09 540.513,315.663C540.619,315.771 541.417,316.589 542.246,317.436L542.578,317.775C543.011,318.217 543.429,318.641 543.736,318.949L544.042,319.255C546.469,321.65 548.381,323.136 550.803,324.371C552.691,325.333 554.734,326.119 557.03,326.797C557.573,326.957 558.05,327.093 558.523,327.221L558.84,327.305C560.374,327.707 562.032,328.055 565.973,328.857C571.5,329.983 574.262,330.767 576.941,332.244C581.704,334.87 584.748,338.178 585.946,342.173C586.263,343.231 585.663,344.346 584.605,344.663C583.547,344.98 582.432,344.379 582.115,343.321C581.248,340.431 578.922,337.904 575.009,335.747C572.805,334.531 570.307,333.822 565.175,332.777C561.277,331.983 559.55,331.622 557.983,331.216L557.649,331.129C557.094,330.981 556.541,330.823 555.898,330.633C553.378,329.889 551.11,329.017 548.986,327.934C546.148,326.487 543.928,324.762 541.233,322.103C541.206,322.076 541.177,322.047 541.145,322.016L540.931,321.801C540.014,320.88 538.13,318.947 537.733,318.542L537.668,318.475C536.178,316.968 534.912,315.761 533.522,314.552C530.174,311.639 526.38,308.988 521.579,306.356C508.707,305.023 494.891,302.409 481.456,298.343C466.328,293.765 452.011,291.499 438.221,290.956C443.561,296.512 446.723,303.122 455.484,308.984C466.594,316.418 473.152,318.476 481.55,325.792C487.975,331.389 490.171,337.744 494.987,342.169C499.803,346.594 512.593,349.216 511.95,351.709C511.306,354.201 497.154,349.165 492.084,344.987C487.228,340.985 483.772,334.114 478.024,329.059C471.144,323.007 461.348,320.588 451.909,314.348C443.308,308.662 436.133,298.774 425.428,290.933C413.462,291.356 401.842,292.989 390.369,295.42C383.114,296.958 375.897,297.51 368.746,297.286C347.85,296.631 327.329,289.351 308.506,280.632C305.753,279.356 303.074,278.334 300.454,277.526C304.436,282.617 305.403,289.808 306.095,297.254L306.2,298.404L306.251,298.98L306.354,300.133C307.21,309.747 308.191,319.389 315.107,325.142C320.071,329.272 326.775,331.516 333.544,333.468L334.642,333.783L335.094,333.911L335.998,334.166C336.3,334.251 336.601,334.336 336.901,334.421L337.801,334.675C347.834,337.512 357.226,340.448 360.401,348.788C363.316,356.446 363.61,362.475 367.548,370.406C371.485,378.336 383.042,383.076 381.176,385.7C379.309,388.324 367.073,380.078 363.421,372.613C359.881,365.377 358.261,357.921 354.698,350.591C348.641,338.13 322.457,344.559 307.109,330.672C300.355,324.562 297.366,314.953 294.741,305.219L294.384,303.891C294.266,303.448 294.149,303.005 294.031,302.563L293.678,301.238L293.387,300.15C290.611,289.829 287.576,280.033 280.155,274.856C266.861,275.143 253.935,278.569 238.597,278.569C212.878,278.569 195.014,261.211 168.75,258.5C142.486,255.788 124.422,255.788 91.522,277.069C82.575,282.856 73.484,287.154 64.511,290.263C71.472,294.109 76.322,299.818 81.182,305.547L82.094,306.62L82.957,307.632C83.034,307.722 83.112,307.812 83.189,307.901C95.994,311.831 106.698,311.217 117.23,310.379L118.626,310.267L120.283,310.134C128.563,309.471 136.853,308.928 146.093,310.613C168.657,314.726 175.417,330.105 189.905,335.538C204.392,340.972 220.786,342.948 220.786,345.124C220.786,347.299 201.963,345.076 188.34,339.965C174.718,334.853 162.641,319.699 145.225,317.582C127.98,315.486 116.412,322.383 95.465,319.449C97.828,321.022 100.441,322.385 103.402,323.449C122.162,330.188 135.943,328.318 152.578,337.607C163.896,343.927 163.896,359.413 176.114,368.597C178.033,370.039 181.098,371.018 184.136,371.79L184.786,371.952C189.546,373.12 194.034,373.82 193.703,375.041C193.146,377.096 179.89,376.082 173.581,372.433C158.743,363.852 158.743,350.049 148.719,344.203C135.172,336.302 120.939,341.267 99.041,332.358C89.728,328.569 81.767,322.169 74.027,315.696L72.774,314.646L72.211,314.174L71.088,313.232C70.526,312.762 69.965,312.293 69.404,311.826L68.281,310.896C60.235,304.258 52.123,298.228 42.653,295.701C26.736,298.198 11.966,297.469 0,295.42L0,277.069C35.126,280.564 59.524,277.14 81.691,262.771C102.954,248.989 137.552,239.175 167.044,241.833C176.529,235.22 182.205,223.819 182.169,204.137C173.39,183.035 154.99,175.121 146.36,160.369C119.617,155.293 117.69,136.447 96.814,136.447C84.706,136.447 74.973,138.065 68.095,136.407C58.558,134.107 53.874,126.741 55.93,126.023C57.987,125.306 61.344,131.695 68.771,133.032C75.03,134.159 83.423,131.145 96.814,131.145C108.212,131.145 115.915,136.064 123.517,141.32L124.467,141.978C124.625,142.088 124.783,142.198 124.942,142.308L126.37,143.297C131.369,146.747 136.517,150.095 142.823,152.054C141.371,147.366 140.288,142.31 139.172,137.139L138.813,135.483C136.532,124.975 133.94,114.104 127.713,104.96C121.57,95.94 114.333,92.709 115.397,91.203C116.461,89.696 123.931,94.58 130.499,102.374C143.483,117.779 147.441,140.768 151.319,151.469C155.336,162.555 169.157,169.485 180.285,182.375L180.268,182.261C174.7,146.337 185.384,127.92 198.568,118.406C208.451,111.274 219.529,111.605 231.234,100.53C235.83,96.181 241.605,84.656 243.24,85.331C244.218,85.736 242.384,90.007 239.91,94.528L239.604,95.083C239.347,95.545 239.084,96.009 238.817,96.47L238.471,97.064C237.196,99.234 235.867,101.304 234.729,102.865C225.83,115.074 214.114,115.821 203.257,124.359C195.176,130.714 191.303,140.212 190.04,150.637C190.341,150.391 190.655,150.153 190.981,149.924C199.945,143.65 206.955,142.103 216.492,142.309C222.341,142.436 228.833,142.418 233.357,140.803C237.9,139.181 245.181,133.318 246.505,134.661C247.829,136.004 240.1,141.969 235.557,144.188C230.749,146.537 222.382,146.983 216.492,146.983C204.635,146.983 196.401,149.663 189.679,159.704L189.561,159.879C189.621,165.493 190.263,171.185 191.262,176.641C194.663,195.217 205.012,224.786 186.465,245.83C193.42,248.18 199.163,251.184 204.854,254.1L206.119,254.747C214.337,258.934 222.626,262.825 234.481,264.185C245.572,254.829 250.541,243.579 254.747,232.516L255.187,231.353C255.26,231.159 255.333,230.965 255.406,230.771L255.977,229.244C256.189,228.675 256.401,228.106 256.613,227.54L257.037,226.408C261.427,214.733 266.077,203.71 277.525,195.878C286.71,189.594 295.077,184.939 302.401,180.925C302.376,177.805 302.254,174.376 302.161,170.879L302.134,169.805C302.014,164.953 301.974,160.017 302.339,155.627C302.242,155.156 302.145,154.655 302.049,154.125C299.754,141.41 284.443,137.225 284.025,129.089C283.607,120.952 283.161,113.678 285.107,113.678C287.053,113.678 286.937,120.435 287.532,127.833C288.062,134.425 300.102,137.041 304.184,146.417C304.644,145.257 305.2,144.244 305.866,143.412C309.988,138.264 313.169,135.177 309.988,127.647C306.808,120.118 306.007,113.854 308.824,109.856C309.735,108.564 310.999,106.727 312.355,104.871L312.744,104.34C315.486,100.63 318.491,97.048 319.654,97.811C321.453,98.992 314.515,109.004 312.485,112.155C310.456,115.306 311.482,119.1 314.782,126.123C318.083,133.147 317.347,140.823 310.905,148.185C309.67,149.596 309.486,156.024 309.722,162.732L309.756,163.628C309.949,168.39 310.338,173.188 310.701,176.337C319.035,171.607 325.472,167.283 329.522,161.23C337.964,148.614 353.118,132.806 367.262,126.023C381.406,119.24 383.921,111.307 392.159,88.705C397.811,73.199 407.69,63.974 419.597,59.384C422.373,52.598 422.554,44.71 421.405,39.06C421.329,38.687 421.252,38.315 421.174,37.945L421,37.11L420.885,36.552L420.774,35.992C419.844,31.217 419.372,26.05 422.814,17.282C424.862,12.065 424.132,9.26 424.132,6.201Z" style="fill:rgb(107,90,46);"/>
        </g>
        <g id="leaves" transform="matrix(1,0,0,1,83.3797,0)">
            <g id="leaf" transform="matrix(0.961262,-0.275637,0.275637,0.961262,4.64899e-05,135.351)">
                <path id="Oval" d="M10.7,32.483C16.356,28.317 19.88,21.992 19.998,15.681C20.107,9.878 15.185,7.104 10.7,-0C-2.597,8.535 -4.505,26.3 10.7,32.483Z" style="fill:url(#_Linear1);"/>
                <path id="Path-16" d="M10.7,32.483C9.702,32.483 8.047,27.521 8.047,18.547C8.047,9.573 9.3,6.957 10,7.202C10.7,7.447 9.702,11.06 9.702,18.547C9.702,26.034 11.698,32.483 10.7,32.483Z" style="fill:rgb(255,215,104);fill-opacity:0.3;"/>
            </g>
            <g id="leaf1" serif:id="leaf" transform="matrix(-0.438371,0.898794,0.898794,0.438371,47.8434,101.119)">
                <path id="Oval1" serif:id="Oval" d="M12.305,37.355C18.809,32.565 22.862,25.291 22.998,18.033C23.123,11.36 17.462,8.169 12.305,-0C-2.986,9.815 -5.18,30.245 12.305,37.355Z" style="fill:url(#_Linear2);"/>
                <path id="Path-161" serif:id="Path-16" d="M12.305,37.355C11.158,37.355 9.254,31.649 9.254,21.329C9.254,11.009 10.695,8.001 11.5,8.282C12.305,8.564 11.158,12.719 11.158,21.329C11.158,29.939 13.453,37.355 12.305,37.355Z" style="fill:rgb(255,215,104);fill-opacity:0.3;"/>
            </g>
            <g id="leaf2" serif:id="leaf" transform="matrix(-0.913545,0.406737,0.406737,0.913545,206.498,79.9026)">
                <path id="Oval2" serif:id="Oval" d="M12.305,37.355C18.809,32.565 22.862,25.291 22.998,18.033C23.123,11.36 17.462,8.169 12.305,-0C-2.986,9.815 -5.18,30.245 12.305,37.355Z" style="fill:url(#_Linear3);"/>
                <path id="Path-162" serif:id="Path-16" d="M12.305,37.355C11.158,37.355 9.254,31.649 9.254,21.329C9.254,11.009 10.695,8.001 11.5,8.282C12.305,8.564 11.158,12.719 11.158,21.329C11.158,29.939 13.453,37.355 12.305,37.355Z" style="fill:rgb(255,215,104);fill-opacity:0.3;"/>
            </g>
            <g id="leaf-copy-15" transform="matrix(-0.997564,0.0697565,0.0697565,0.997564,295.816,98.2415)">
                <path id="Oval3" serif:id="Oval" d="M11.77,35.731C17.991,31.149 21.868,24.191 21.998,17.249C22.118,10.866 16.703,7.814 11.77,0C-2.857,9.388 -4.955,28.93 11.77,35.731Z" style="fill:url(#_Linear4);"/>
                <path id="Path-163" serif:id="Path-16" d="M11.77,35.731C10.673,35.731 8.851,30.273 8.851,20.401C8.851,10.53 10.23,7.653 11,7.922C11.77,8.191 10.673,12.166 10.673,20.401C10.673,28.637 12.868,35.731 11.77,35.731Z" style="fill:rgb(255,215,104);fill-opacity:0.3;"/>
            </g>
            <g id="leaf-copy-8" transform="matrix(0.866025,0.5,-0.5,0.866025,401.023,3.57766e-05)">
                <path id="Oval4" serif:id="Oval" d="M11.235,34.107C17.174,29.733 20.874,23.092 20.998,16.465C21.113,10.372 15.944,7.459 11.235,0C-2.727,8.961 -4.73,27.615 11.235,34.107Z" style="fill:url(#_Linear5);"/>
                <path id="Path-164" serif:id="Path-16" d="M11.235,34.107C10.187,34.107 8.449,28.897 8.449,19.474C8.449,10.052 9.765,7.305 10.5,7.562C11.235,7.819 10.187,11.613 10.187,19.474C10.187,27.335 12.283,34.107 11.235,34.107Z" style="fill:rgb(255,215,104);fill-opacity:0.3;"/>
            </g>
            <g id="leaf-copy-9" transform="matrix(0.984808,0.173648,-0.173648,0.984808,418.507,42.2521)">
                <path id="Oval5" serif:id="Oval" d="M12.305,37.355C18.809,32.565 22.862,25.291 22.998,18.033C23.123,11.36 17.462,8.169 12.305,0C-2.986,9.815 -5.18,30.245 12.305,37.355Z" style="fill:url(#_Linear6);"/>
                <path id="Path-165" serif:id="Path-16" d="M12.305,37.355C11.158,37.355 9.254,31.649 9.254,21.329C9.254,11.009 10.695,8.001 11.5,8.282C12.305,8.564 11.158,12.719 11.158,21.329C11.158,29.939 13.453,37.355 12.305,37.355Z" style="fill:rgb(255,215,104);fill-opacity:0.3;"/>
            </g>
            <g id="leaf-copy-10" transform="matrix(-0.994522,-0.104528,-0.104528,0.994522,490.65,29.0428)">
                <path id="Oval6" serif:id="Oval" d="M10.165,30.859C15.538,26.902 18.886,20.892 18.998,14.897C19.102,9.385 14.425,6.748 10.165,-0C-2.467,8.108 -4.28,24.985 10.165,30.859Z" style="fill:url(#_Linear7);"/>
                <path id="Path-166" serif:id="Path-16" d="M10.165,30.859C9.217,30.859 7.644,26.145 7.644,17.619C7.644,9.094 8.835,6.609 9.5,6.842C10.165,7.074 9.217,10.507 9.217,17.619C9.217,24.732 11.114,30.859 10.165,30.859Z" style="fill:rgb(255,215,104);fill-opacity:0.3;"/>
            </g>
            <g id="leaf-copy-11" transform="matrix(-0.0697565,0.997564,-0.997564,-0.0697565,531.954,61.2542)">
                <path id="Oval7" serif:id="Oval" d="M9.095,27.61C13.903,24.07 16.898,18.693 16.998,13.329C17.091,8.397 12.907,6.038 9.095,-0C-2.207,7.255 -3.829,22.355 9.095,27.61Z" style="fill:url(#_Linear8);"/>
                <path id="Path-167" serif:id="Path-16" d="M9.095,27.61C8.247,27.61 6.84,23.392 6.84,15.765C6.84,8.137 7.905,5.913 8.5,6.122C9.095,6.33 8.247,9.401 8.247,15.765C8.247,22.129 9.944,27.61 9.095,27.61Z" style="fill:rgb(255,215,104);fill-opacity:0.3;"/>
            </g>
            <g id="leaf-copy-12" transform="matrix(-0.809017,0.587785,-0.587785,-0.809017,525.962,133.118)">
                <path id="Oval8" serif:id="Oval" d="M9.63,29.235C14.72,25.486 17.892,19.793 17.998,14.113C18.096,8.891 13.666,6.393 9.63,0C-2.337,7.681 -4.054,23.67 9.63,29.235Z" style="fill:url(#_Linear9);"/>
                <path id="Path-168" serif:id="Path-16" d="M9.63,29.235C8.732,29.235 7.242,24.768 7.242,16.692C7.242,8.616 8.37,6.261 9,6.482C9.63,6.702 8.732,9.954 8.732,16.692C8.732,23.43 10.529,29.235 9.63,29.235Z" style="fill:rgb(255,215,104);fill-opacity:0.3;"/>
            </g>
            <g id="leaf-copy-13" transform="matrix(-0.898794,0.438371,-0.438371,-0.898794,479.976,132.13)">
                <path id="Oval9" serif:id="Oval" d="M8.56,25.986C13.085,22.654 15.904,17.594 15.999,12.545C16.086,7.903 12.148,5.683 8.56,-0C-2.078,6.828 -3.604,21.04 8.56,25.986Z" style="fill:url(#_Linear10);"/>
                <path id="Path-169" serif:id="Path-16" d="M8.56,25.986C7.762,25.986 6.437,22.016 6.437,14.837C6.437,7.658 7.44,5.566 8,5.761C8.56,5.957 7.762,8.848 7.762,14.837C7.762,20.827 9.359,25.986 8.56,25.986Z" style="fill:rgb(255,215,104);fill-opacity:0.3;"/>
            </g>
            <g id="leaf-copy-20" transform="matrix(-0.406737,0.913545,-0.913545,-0.406737,505.549,160.992)">
                <path id="Oval10" serif:id="Oval" d="M10.165,30.859C15.538,26.902 18.886,20.892 18.998,14.897C19.102,9.385 14.425,6.748 10.165,-0C-2.467,8.108 -4.28,24.985 10.165,30.859Z" style="fill:url(#_Linear11);"/>
                <path id="Path-1610" serif:id="Path-16" d="M10.165,30.859C9.217,30.859 7.644,26.145 7.644,17.619C7.644,9.094 8.835,6.609 9.5,6.842C10.165,7.074 9.217,10.507 9.217,17.619C9.217,24.732 11.114,30.859 10.165,30.859Z" style="fill:rgb(255,215,104);fill-opacity:0.3;"/>
            </g>
            <g id="leaf-copy-25" transform="matrix(-0.997564,-0.0697565,0.0697565,-0.997564,454.395,207.85)">
                <path id="Oval11" serif:id="Oval" d="M6.42,19.49C9.814,16.99 11.928,13.195 11.999,9.409C12.064,5.927 9.111,4.262 6.42,0C-1.558,5.121 -2.703,15.78 6.42,19.49Z" style="fill:url(#_Linear12);"/>
                <path id="Path-1611" serif:id="Path-16" d="M6.42,19.49C5.821,19.49 4.828,16.512 4.828,11.128C4.828,5.744 5.58,4.174 6,4.321C6.42,4.468 5.821,6.636 5.821,11.128C5.821,15.62 7.019,19.49 6.42,19.49Z" style="fill:rgb(255,215,104);fill-opacity:0.3;"/>
            </g>
            <g id="leaf-copy-26" transform="matrix(-0.994522,0.104528,-0.104528,-0.994522,483.486,226.612)">
                <path id="Oval12" serif:id="Oval" d="M9.095,27.61C13.903,24.07 16.898,18.693 16.998,13.329C17.091,8.397 12.907,6.038 9.095,0C-2.207,7.255 -3.829,22.355 9.095,27.61Z" style="fill:url(#_Linear13);"/>
                <path id="Path-1612" serif:id="Path-16" d="M9.095,27.61C8.247,27.61 6.84,23.392 6.84,15.765C6.84,8.137 7.905,5.913 8.5,6.122C9.095,6.33 8.247,9.401 8.247,15.765C8.247,22.129 9.944,27.61 9.095,27.61Z" style="fill:rgb(255,215,104);fill-opacity:0.3;"/>
            </g>
            <g id="leaf-copy-261" serif:id="leaf-copy-26" transform="matrix(-0.0697565,0.997564,-0.997564,-0.0697565,507.954,185.254)">
                <path id="Oval13" serif:id="Oval" d="M9.095,27.61C13.903,24.07 16.898,18.693 16.998,13.329C17.091,8.397 12.907,6.038 9.095,0C-2.207,7.255 -3.829,22.355 9.095,27.61Z" style="fill:url(#_Linear14);"/>
                <path id="Path-1613" serif:id="Path-16" d="M9.095,27.61C8.247,27.61 6.84,23.392 6.84,15.765C6.84,8.137 7.905,5.913 8.5,6.122C9.095,6.33 8.247,9.401 8.247,15.765C8.247,22.129 9.944,27.61 9.095,27.61Z" style="fill:rgb(255,215,104);fill-opacity:0.3;"/>
            </g>
            <g id="leaf-copy-21" transform="matrix(0.275637,0.961262,-0.961262,0.275637,400.308,202.071)">
                <path id="Oval14" serif:id="Oval" d="M11.859,36C18.127,31.384 22.032,24.373 22.164,17.379C22.284,10.948 16.829,7.873 11.859,-0C-2.878,9.459 -4.993,29.148 11.859,36Z" style="fill:url(#_Linear15);"/>
                <path id="Path-1614" serif:id="Path-16" d="M11.859,36C10.753,36 8.918,30.5 8.918,20.555C8.918,10.61 10.307,7.71 11.083,7.982C11.859,8.253 10.753,12.258 10.753,20.555C10.753,28.852 12.965,36 11.859,36Z" style="fill:rgb(255,215,104);fill-opacity:0.3;"/>
            </g>
            <g id="leaf-copy-22" transform="matrix(-0.241922,0.970296,-0.970296,-0.241922,435.616,245.81)">
                <path id="Oval15" serif:id="Oval" d="M12.394,37.624C18.945,32.799 23.026,25.473 23.163,18.163C23.29,11.442 17.588,8.228 12.394,0C-3.008,9.886 -5.218,30.463 12.394,37.624Z" style="fill:url(#_Linear16);"/>
                <path id="Path-1615" serif:id="Path-16" d="M12.394,37.624C11.238,37.624 9.32,31.876 9.32,21.482C9.32,11.088 10.772,8.058 11.583,8.342C12.394,8.625 11.238,12.811 11.238,21.482C11.238,30.154 13.55,37.624 12.394,37.624Z" style="fill:rgb(255,215,104);fill-opacity:0.3;"/>
            </g>
            <g id="leaf-copy-32" transform="matrix(-0.0697565,0.997564,-0.997564,-0.0697565,580.135,289.256)">
                <path id="Oval16" serif:id="Oval" d="M12.394,37.624C18.945,32.799 23.026,25.473 23.163,18.163C23.29,11.442 17.588,8.228 12.394,-0C-3.008,9.886 -5.218,30.463 12.394,37.624Z" style="fill:url(#_Linear17);"/>
                <path id="Path-1616" serif:id="Path-16" d="M12.394,37.624C11.238,37.624 9.32,31.876 9.32,21.482C9.32,11.088 10.772,8.058 11.583,8.342C12.394,8.625 11.238,12.811 11.238,21.482C11.238,30.154 13.55,37.624 12.394,37.624Z" style="fill:rgb(255,215,104);fill-opacity:0.3;"/>
            </g>
            <g id="leaf-copy-34" transform="matrix(0.438371,0.898794,-0.898794,0.438371,608.37,307.828)">
                <path id="Oval17" serif:id="Oval" d="M11.324,34.376C17.309,29.968 21.038,23.274 21.164,16.595C21.279,10.454 16.07,7.518 11.324,0C-2.748,9.032 -4.767,27.833 11.324,34.376Z" style="fill:url(#_Linear18);"/>
                <path id="Path-1617" serif:id="Path-16" d="M11.324,34.376C10.268,34.376 8.516,29.124 8.516,19.628C8.516,10.131 9.842,7.362 10.583,7.622C11.324,7.881 10.268,11.705 10.268,19.628C10.268,27.551 12.38,34.376 11.324,34.376Z" style="fill:rgb(255,215,104);fill-opacity:0.3;"/>
            </g>
            <g id="leaf-copy-35" transform="matrix(-0.898794,0.438371,-0.438371,-0.898794,608.996,368.038)">
                <path id="Oval18" serif:id="Oval" d="M10.254,31.128C15.673,27.136 19.05,21.074 19.164,15.027C19.268,9.466 14.551,6.807 10.254,0C-2.489,8.179 -4.317,25.203 10.254,31.128Z" style="fill:url(#_Linear19);"/>
                <path id="Path-1618" serif:id="Path-16" d="M10.254,31.128C9.297,31.128 7.711,26.372 7.711,17.773C7.711,9.174 8.912,6.667 9.583,6.901C10.254,7.136 9.297,10.599 9.297,17.773C9.297,24.947 11.21,31.128 10.254,31.128Z" style="fill:rgb(255,215,104);fill-opacity:0.3;"/>
            </g>
            <g id="leaf-copy-36" transform="matrix(-0.970296,0.241922,-0.241922,-0.970296,572.532,427.428)">
                <path id="Oval19" serif:id="Oval" d="M12.929,39.248C19.762,34.215 24.02,26.572 24.163,18.947C24.295,11.936 18.347,8.583 12.929,-0C-3.138,10.312 -5.443,31.778 12.929,39.248Z" style="fill:url(#_Linear20);"/>
                <path id="Path-1619" serif:id="Path-16" d="M12.929,39.248C11.723,39.248 9.723,33.252 9.723,22.41C9.723,11.567 11.237,8.406 12.083,8.702C12.929,8.998 11.723,13.364 11.723,22.41C11.723,31.456 14.135,39.248 12.929,39.248Z" style="fill:rgb(255,215,104);fill-opacity:0.3;"/>
            </g>
            <g id="leaf-copy-37" transform="matrix(-0.694658,-0.71934,0.71934,-0.694658,518.758,408.219)">
                <path id="Oval20" serif:id="Oval" d="M9.719,29.503C14.856,25.72 18.056,19.975 18.164,14.243C18.263,8.972 13.792,6.452 9.719,0C-2.359,7.752 -4.092,23.888 9.719,29.503Z" style="fill:url(#_Linear21);"/>
                <path id="Path-1620" serif:id="Path-16" d="M9.719,29.503C8.812,29.503 7.309,24.996 7.309,16.846C7.309,8.695 8.447,6.319 9.083,6.541C9.719,6.764 8.812,10.046 8.812,16.846C8.812,23.646 10.625,29.503 9.719,29.503Z" style="fill:rgb(255,215,104);fill-opacity:0.3;"/>
            </g>
            <g id="leaf-copy-33" transform="matrix(-0.809017,0.587785,-0.587785,-0.809017,513.461,331.209)">
                <path id="Oval21" serif:id="Oval" d="M10.254,31.128C15.673,27.136 19.05,21.074 19.164,15.027C19.268,9.466 14.551,6.807 10.254,-0C-2.489,8.179 -4.317,25.203 10.254,31.128Z" style="fill:url(#_Linear22);"/>
                <path id="Path-1621" serif:id="Path-16" d="M10.254,31.128C9.297,31.128 7.711,26.372 7.711,17.773C7.711,9.174 8.912,6.667 9.583,6.901C10.254,7.136 9.297,10.599 9.297,17.773C9.297,24.947 11.21,31.128 10.254,31.128Z" style="fill:rgb(255,215,104);fill-opacity:0.3;"/>
            </g>
            <g id="leaf-copy-23" transform="matrix(-0.406737,0.913545,-0.913545,-0.406737,353.895,264.084)">
                <path id="Oval22" serif:id="Oval" d="M8.114,24.631C12.402,21.472 15.074,16.676 15.164,11.89C15.247,7.491 11.514,5.387 8.114,0C-1.969,6.472 -3.416,19.943 8.114,24.631Z" style="fill:url(#_Linear23);"/>
                <path id="Path-1622" serif:id="Path-16" d="M8.114,24.631C7.357,24.631 6.102,20.868 6.102,14.064C6.102,7.259 7.052,5.275 7.583,5.461C8.114,5.647 7.357,8.387 7.357,14.064C7.357,19.741 8.871,24.631 8.114,24.631Z" style="fill:rgb(255,215,104);fill-opacity:0.3;"/>
            </g>
            <g id="leaf-copy-27" transform="matrix(-0.809017,0.587785,-0.587785,-0.809017,398.843,360.384)">
                <path id="Oval23" serif:id="Oval" d="M10.789,32.752C16.491,28.552 20.044,22.174 20.164,15.811C20.274,9.96 15.31,7.162 10.789,0C-2.618,8.605 -4.542,26.518 10.789,32.752Z" style="fill:url(#_Linear24);"/>
                <path id="Path-1623" serif:id="Path-16" d="M10.789,32.752C9.783,32.752 8.113,27.748 8.113,18.7C8.113,9.652 9.377,7.015 10.083,7.261C10.789,7.508 9.783,11.152 9.783,18.7C9.783,26.249 11.795,32.752 10.789,32.752Z" style="fill:rgb(255,215,104);fill-opacity:0.3;"/>
            </g>
            <g id="leaf-copy-28" transform="matrix(-0.970296,-0.241922,0.241922,-0.970296,446.671,420.112)">
                <path id="Oval24" serif:id="Oval" d="M11.324,34.376C17.309,29.968 21.038,23.274 21.164,16.595C21.279,10.454 16.07,7.518 11.324,0C-2.748,9.032 -4.767,27.833 11.324,34.376Z" style="fill:url(#_Linear25);"/>
                <path id="Path-1624" serif:id="Path-16" d="M11.324,34.376C10.268,34.376 8.516,29.124 8.516,19.628C8.516,10.131 9.842,7.362 10.583,7.622C11.324,7.881 10.268,11.705 10.268,19.628C10.268,27.551 12.38,34.376 11.324,34.376Z" style="fill:rgb(255,215,104);fill-opacity:0.3;"/>
            </g>
            <g id="leaf-copy-29" transform="matrix(0.275637,0.961262,-0.961262,0.275637,481.309,360.318)">
                <path id="Oval25" serif:id="Oval" d="M8.114,24.631C12.402,21.472 15.074,16.676 15.164,11.89C15.247,7.491 11.514,5.387 8.114,0C-1.969,6.472 -3.416,19.943 8.114,24.631Z" style="fill:url(#_Linear26);"/>
                <path id="Path-1625" serif:id="Path-16" d="M8.114,24.631C7.357,24.631 6.102,20.868 6.102,14.064C6.102,7.259 7.052,5.275 7.583,5.461C8.114,5.647 7.357,8.387 7.357,14.064C7.357,19.741 8.871,24.631 8.114,24.631Z" style="fill:rgb(255,215,104);fill-opacity:0.3;"/>
            </g>
            <g id="leaf-copy-30" transform="matrix(-0.994522,0.104528,-0.104528,-0.994522,492.471,422.024)">
                <path id="Oval26" serif:id="Oval" d="M8.649,26.255C13.22,22.888 16.068,17.776 16.164,12.674C16.252,7.985 12.273,5.742 8.649,-0C-2.099,6.898 -3.641,21.258 8.649,26.255Z" style="fill:url(#_Linear27);"/>
                <path id="Path-1626" serif:id="Path-16" d="M8.649,26.255C7.842,26.255 6.504,22.244 6.504,14.991C6.504,7.738 7.517,5.623 8.083,5.821C8.649,6.019 7.842,8.94 7.842,14.991C7.842,21.042 9.456,26.255 8.649,26.255Z" style="fill:rgb(255,215,104);fill-opacity:0.3;"/>
            </g>
            <g id="leaf-copy-24" transform="matrix(-0.34202,0.939693,-0.939693,-0.34202,465.727,280.088)">
                <path id="Oval27" serif:id="Oval" d="M8.114,24.631C12.402,21.472 15.074,16.676 15.164,11.89C15.247,7.491 11.514,5.387 8.114,0C-1.969,6.472 -3.416,19.943 8.114,24.631Z" style="fill:url(#_Linear28);"/>
                <path id="Path-1627" serif:id="Path-16" d="M8.114,24.631C7.357,24.631 6.102,20.868 6.102,14.064C6.102,7.259 7.052,5.275 7.583,5.461C8.114,5.647 7.357,8.387 7.357,14.064C7.357,19.741 8.871,24.631 8.114,24.631Z" style="fill:rgb(255,215,104);fill-opacity:0.3;"/>
            </g>
            <g id="leaf-copy-31" transform="matrix(-0.866025,-0.5,-0.5,0.866025,538.319,271.28)">
                <path id="Oval28" serif:id="Oval" d="M11.324,34.376C17.309,29.968 21.038,23.274 21.164,16.595C21.279,10.454 16.07,7.518 11.324,-0C-2.748,9.032 -4.767,27.833 11.324,34.376Z" style="fill:url(#_Linear29);"/>
                <path id="Path-1628" serif:id="Path-16" d="M11.324,34.376C10.268,34.376 8.516,29.124 8.516,19.628C8.516,10.131 9.842,7.362 10.583,7.622C11.324,7.881 10.268,11.705 10.268,19.628C10.268,27.551 12.38,34.376 11.324,34.376Z" style="fill:rgb(255,215,104);fill-opacity:0.3;"/>
            </g>
            <g id="leaf3" serif:id="leaf" transform="matrix(-0.994522,-0.104528,-0.104528,0.994522,212.157,152.703)">
                <path id="Oval29" serif:id="Oval" d="M6.955,21.114C10.631,18.406 12.922,14.295 12.999,10.193C13.07,6.421 9.87,4.617 6.955,-0C-1.688,5.548 -2.928,17.095 6.955,21.114Z" style="fill:url(#_Linear30);"/>
                <path id="Path-1629" serif:id="Path-16" d="M6.955,21.114C6.306,21.114 5.23,17.888 5.23,12.055C5.23,6.222 6.045,4.522 6.5,4.681C6.955,4.84 6.306,7.189 6.306,12.055C6.306,16.922 7.604,21.114 6.955,21.114Z" style="fill:rgb(255,215,104);fill-opacity:0.3;"/>
            </g>
            <g id="leaf4" serif:id="leaf" transform="matrix(-0.241922,-0.970296,-0.970296,0.241922,238.405,175.275)">
                <path id="Oval30" serif:id="Oval" d="M6.955,21.114C10.631,18.406 12.922,14.295 12.999,10.193C13.07,6.421 9.87,4.617 6.955,-0C-1.688,5.548 -2.928,17.095 6.955,21.114Z" style="fill:url(#_Linear31);"/>
                <path id="Path-1630" serif:id="Path-16" d="M6.955,21.114C6.306,21.114 5.23,17.888 5.23,12.055C5.23,6.222 6.045,4.522 6.5,4.681C6.955,4.84 6.306,7.189 6.306,12.055C6.306,16.922 7.604,21.114 6.955,21.114Z" style="fill:rgb(255,215,104);fill-opacity:0.3;"/>
            </g>
            <g id="leaf-copy" transform="matrix(-0.241922,-0.970296,-0.970296,0.241922,147.405,348.275)">
                <path id="Oval31" serif:id="Oval" d="M6.955,21.114C10.631,18.406 12.922,14.295 12.999,10.193C13.07,6.421 9.87,4.617 6.955,-0C-1.688,5.548 -2.928,17.095 6.955,21.114Z" style="fill:url(#_Linear32);"/>
                <path id="Path-1631" serif:id="Path-16" d="M6.955,21.114C6.306,21.114 5.23,17.888 5.23,12.055C5.23,6.222 6.045,4.522 6.5,4.681C6.955,4.84 6.306,7.189 6.306,12.055C6.306,16.922 7.604,21.114 6.955,21.114Z" style="fill:rgb(255,215,104);fill-opacity:0.3;"/>
            </g>
            <g id="leaf-copy-2" transform="matrix(0.104528,-0.994522,-0.994522,-0.104528,176.268,372.601)">
                <path id="Oval32" serif:id="Oval" d="M8.565,26C13.092,22.666 15.912,17.603 16.007,12.551C16.094,7.907 12.154,5.686 8.565,0C-2.079,6.831 -3.606,21.051 8.565,26Z" style="fill:url(#_Linear33);"/>
                <path id="Path-1632" serif:id="Path-16" d="M8.565,26C7.766,26 6.441,22.028 6.441,14.845C6.441,7.662 7.444,5.569 8.004,5.765C8.565,5.96 7.766,8.853 7.766,14.845C7.766,20.838 9.364,26 8.565,26Z" style="fill:rgb(255,215,104);fill-opacity:0.3;"/>
            </g>
            <g id="leaf-copy-17" transform="matrix(0.994522,0.104528,0.104528,-0.994522,296.775,416.941)">
                <path id="Oval33" serif:id="Oval" d="M9.1,27.624C13.909,24.082 16.906,18.702 17.007,13.335C17.1,8.401 12.913,6.041 9.1,0C-2.209,7.258 -3.831,22.366 9.1,27.624Z" style="fill:url(#_Linear34);"/>
                <path id="Path-1633" serif:id="Path-16" d="M9.1,27.624C8.251,27.624 6.843,23.404 6.843,15.773C6.843,8.141 7.909,5.916 8.504,6.125C9.1,6.333 8.251,9.406 8.251,15.773C8.251,22.14 9.949,27.624 9.1,27.624Z" style="fill:rgb(255,215,104);fill-opacity:0.3;"/>
            </g>
            <g id="leaf-copy-19" transform="matrix(-0.898794,0.438371,-0.438371,-0.898794,367.069,450.457)">
                <path id="Oval34" serif:id="Oval" d="M8.565,26C13.092,22.666 15.912,17.603 16.007,12.551C16.094,7.907 12.154,5.686 8.565,-0C-2.079,6.831 -3.606,21.051 8.565,26Z" style="fill:url(#_Linear35);"/>
                <path id="Path-1634" serif:id="Path-16" d="M8.565,26C7.766,26 6.441,22.028 6.441,14.845C6.441,7.662 7.444,5.569 8.004,5.765C8.565,5.96 7.766,8.853 7.766,14.845C7.766,20.838 9.364,26 8.565,26Z" style="fill:rgb(255,215,104);fill-opacity:0.3;"/>
            </g>
            <g id="leaf-copy-4" transform="matrix(-0.961262,0.275637,-0.275637,-0.961262,166.303,407.393)">
                <path id="Oval35" serif:id="Oval" d="M8.56,25.986C13.085,22.654 15.904,17.594 15.999,12.545C16.086,7.903 12.148,5.683 8.56,-0C-2.078,6.828 -3.604,21.04 8.56,25.986Z" style="fill:url(#_Linear36);"/>
                <path id="Path-1635" serif:id="Path-16" d="M8.56,25.986C7.762,25.986 6.437,22.016 6.437,14.837C6.437,7.658 7.44,5.566 8,5.761C8.56,5.957 7.762,8.848 7.762,14.837C7.762,20.827 9.359,25.986 8.56,25.986Z" style="fill:rgb(255,215,104);fill-opacity:0.3;"/>
            </g>
            <g id="leaf-copy-6" transform="matrix(-0.984808,0.173648,-0.173648,-0.984808,155.632,440.415)">
                <path id="Oval36" serif:id="Oval" d="M6.42,19.49C9.814,16.99 11.928,13.195 11.999,9.409C12.064,5.927 9.111,4.262 6.42,0C-1.558,5.121 -2.703,15.78 6.42,19.49Z" style="fill:url(#_Linear37);"/>
                <path id="Path-1636" serif:id="Path-16" d="M6.42,19.49C5.821,19.49 4.828,16.512 4.828,11.128C4.828,5.744 5.58,4.174 6,4.321C6.42,4.468 5.821,6.636 5.821,11.128C5.821,15.62 7.019,19.49 6.42,19.49Z" style="fill:rgb(255,215,104);fill-opacity:0.3;"/>
            </g>
            <g id="leaf-copy-3" transform="matrix(-0.406737,0.913545,-0.913545,-0.406737,230.304,390.746)">
                <path id="Oval37" serif:id="Oval" d="M12.518,38C19.134,33.127 23.256,25.727 23.395,18.344C23.522,11.556 17.764,8.31 12.518,-0C-3.038,9.984 -5.27,30.767 12.518,38Z" style="fill:url(#_Linear38);"/>
                <path id="Path-1637" serif:id="Path-16" d="M12.518,38C11.35,38 9.413,32.195 9.413,21.697C9.413,11.199 10.879,8.139 11.698,8.425C12.518,8.711 11.35,12.939 11.35,21.697C11.35,30.455 13.685,38 12.518,38Z" style="fill:rgb(255,215,104);fill-opacity:0.3;"/>
            </g>
            <g id="leaf-copy-18" transform="matrix(-0.0697565,0.997564,-0.997564,-0.0697565,355.508,392.661)">
                <path id="Oval38" serif:id="Oval" d="M7.168,21.759C10.956,18.968 13.316,14.731 13.396,10.504C13.469,6.617 10.171,4.758 7.168,0C-1.74,5.717 -3.018,17.617 7.168,21.759Z" style="fill:url(#_Linear39);"/>
                <path id="Path-1638" serif:id="Path-16" d="M7.168,21.759C6.499,21.759 5.39,18.435 5.39,12.424C5.39,6.412 6.229,4.66 6.698,4.824C7.168,4.988 6.499,7.409 6.499,12.424C6.499,17.439 7.836,21.759 7.168,21.759Z" style="fill:rgb(255,215,104);fill-opacity:0.3;"/>
            </g>
            <g id="leaf-copy-5" transform="matrix(-0.406737,0.913545,-0.913545,-0.406737,208.639,423.803)">
                <path id="Oval39" serif:id="Oval" d="M14.123,42.872C21.587,37.375 26.238,29.026 26.395,20.696C26.538,13.038 20.042,9.376 14.123,-0C-3.428,11.265 -5.946,34.712 14.123,42.872Z" style="fill:url(#_Linear40);"/>
                <path id="Path-1639" serif:id="Path-16" d="M14.123,42.872C12.806,42.872 10.62,36.323 10.62,24.479C10.62,12.635 12.274,9.182 13.198,9.505C14.123,9.828 12.806,14.598 12.806,24.479C12.806,34.36 15.44,42.872 14.123,42.872Z" style="fill:rgb(255,215,104);fill-opacity:0.3;"/>
            </g>
            <g id="leaf-copy-7" transform="matrix(-0.970296,-0.241922,0.241922,-0.970296,119.365,436.529)">
                <path id="Oval40" serif:id="Oval" d="M11.448,34.752C17.498,30.295 21.268,23.528 21.395,16.776C21.512,10.568 16.245,7.6 11.448,-0C-2.778,9.131 -4.819,28.137 11.448,34.752Z" style="fill:url(#_Linear41);"/>
                <path id="Path-1640" serif:id="Path-16" d="M11.448,34.752C10.38,34.752 8.609,29.443 8.609,19.842C8.609,10.242 9.949,7.443 10.698,7.705C11.448,7.967 10.38,11.833 10.38,19.842C10.38,27.852 12.516,34.752 11.448,34.752Z" style="fill:rgb(255,215,104);fill-opacity:0.3;"/>
            </g>
            <g id="leaf5" serif:id="leaf" transform="matrix(-0.559193,0.829038,-0.829038,-0.559193,236.693,196.147)">
                <path id="Oval41" serif:id="Oval" d="M10.165,30.859C15.538,26.902 18.886,20.892 18.998,14.897C19.102,9.385 14.425,6.748 10.165,-0C-2.467,8.108 -4.28,24.985 10.165,30.859Z" style="fill:url(#_Linear42);"/>
                <path id="Path-1641" serif:id="Path-16" d="M10.165,30.859C9.217,30.859 7.644,26.145 7.644,17.619C7.644,9.094 8.835,6.609 9.5,6.842C10.165,7.074 9.217,10.507 9.217,17.619C9.217,24.732 11.114,30.859 10.165,30.859Z" style="fill:rgb(255,215,104);fill-opacity:0.3;"/>
            </g>
            <g id="leaf6" serif:id="leaf" transform="matrix(-0.0174524,0.999848,0.999848,0.0174524,62.9346,143.031)">
                <path id="Oval42" serif:id="Oval" d="M9.095,27.61C13.903,24.07 16.898,18.693 16.998,13.329C17.091,8.397 12.907,6.038 9.095,-0C-2.207,7.255 -3.829,22.355 9.095,27.61Z" style="fill:url(#_Linear43);"/>
                <path id="Path-1642" serif:id="Path-16" d="M9.095,27.61C8.247,27.61 6.84,23.392 6.84,15.765C6.84,8.137 7.905,5.913 8.5,6.122C9.095,6.33 8.247,9.401 8.247,15.765C8.247,22.129 9.944,27.61 9.095,27.61Z" style="fill:rgb(255,215,104);fill-opacity:0.3;"/>
            </g>
            <g id="leaf7" serif:id="leaf" transform="matrix(0.87462,0.48481,-0.48481,0.87462,96.848,100.575)">
                <path id="Oval43" serif:id="Oval" d="M9.095,27.61C13.903,24.07 16.898,18.693 16.998,13.329C17.091,8.397 12.907,6.038 9.095,-0C-2.207,7.255 -3.829,22.355 9.095,27.61Z" style="fill:url(#_Linear44);"/>
                <path id="Path-1643" serif:id="Path-16" d="M9.095,27.61C8.247,27.61 6.84,23.392 6.84,15.765C6.84,8.137 7.905,5.913 8.5,6.122C9.095,6.33 8.247,9.401 8.247,15.765C8.247,22.129 9.944,27.61 9.095,27.61Z" style="fill:rgb(255,215,104);fill-opacity:0.3;"/>
            </g>
            <g id="leaf8" serif:id="leaf" transform="matrix(0.515038,0.857167,-0.857167,0.515038,125.922,122.305)">
                <path id="Oval44" serif:id="Oval" d="M10.165,30.859C15.538,26.902 18.886,20.892 18.998,14.897C19.102,9.385 14.425,6.748 10.165,-0C-2.467,8.108 -4.28,24.985 10.165,30.859Z" style="fill:url(#_Linear45);"/>
                <path id="Path-1644" serif:id="Path-16" d="M10.165,30.859C9.217,30.859 7.644,26.145 7.644,17.619C7.644,9.094 8.835,6.609 9.5,6.842C10.165,7.074 9.217,10.507 9.217,17.619C9.217,24.732 11.114,30.859 10.165,30.859Z" style="fill:rgb(255,215,104);fill-opacity:0.3;"/>
            </g>
            <g id="leaf-copy-14" transform="matrix(0.945519,0.325568,-0.325568,0.945519,250.464,125.187)">
                <path id="Oval45" serif:id="Oval" d="M8.025,24.362C12.267,21.238 14.91,16.494 14.999,11.761C15.08,7.409 11.389,5.328 8.025,0C-1.948,6.401 -3.379,19.725 8.025,24.362Z" style="fill:url(#_Linear46);"/>
                <path id="Path-1645" serif:id="Path-16" d="M8.025,24.362C7.277,24.362 6.035,20.64 6.035,13.91C6.035,7.18 6.975,5.218 7.5,5.401C8.025,5.585 7.277,8.295 7.277,13.91C7.277,19.525 8.774,24.362 8.025,24.362Z" style="fill:rgb(255,215,104);fill-opacity:0.3;"/>
            </g>
            <g id="leaf-copy-16" transform="matrix(0.515038,0.857167,-0.857167,0.515038,302.168,146.444)">
                <path id="Oval46" serif:id="Oval" d="M8.025,24.362C12.267,21.238 14.91,16.494 14.999,11.761C15.08,7.409 11.389,5.328 8.025,0C-1.948,6.401 -3.379,19.725 8.025,24.362Z" style="fill:url(#_Linear47);"/>
                <path id="Path-1646" serif:id="Path-16" d="M8.025,24.362C7.277,24.362 6.035,20.64 6.035,13.91C6.035,7.18 6.975,5.218 7.5,5.401C8.025,5.585 7.277,8.295 7.277,13.91C7.277,19.525 8.774,24.362 8.025,24.362Z" style="fill:rgb(255,215,104);fill-opacity:0.3;"/>
            </g>
            <g id="leaf9" serif:id="leaf" transform="matrix(0.898794,0.438371,0.438371,-0.898794,20.8978,202.452)">
                <path id="Oval47" serif:id="Oval" d="M9.095,27.61C13.903,24.07 16.898,18.693 16.998,13.329C17.091,8.397 12.907,6.038 9.095,0C-2.207,7.255 -3.829,22.355 9.095,27.61Z" style="fill:url(#_Linear48);"/>
                <path id="Path-1647" serif:id="Path-16" d="M9.095,27.61C8.247,27.61 6.84,23.392 6.84,15.765C6.84,8.137 7.905,5.913 8.5,6.122C9.095,6.33 8.247,9.401 8.247,15.765C8.247,22.129 9.944,27.61 9.095,27.61Z" style="fill:rgb(255,215,104);fill-opacity:0.3;"/>
            </g>
        </g>
        <g id="decorative-divider" transform="matrix(1,0,0,1,0,155.989)">
            <path id="Combined-Shape1" serif:id="Combined-Shape" d="M41.205,177.169C41.252,186.679 41.252,197.511 41.205,209.664L41.192,209.663L41.191,211.281C41.179,235.095 41.16,270.535 41.134,317.601L41.133,319.6L33.142,319.601L33.142,323.753L41.205,323.753L41.205,335.657L29.143,335.657L29.142,327.753L25.196,327.753L25.197,335.657L6.919,335.657L6.919,331.657L21.196,331.657L21.196,327.753L0.001,327.753L-0,323.753L2.392,323.753C6.792,323.753 8.254,322.92 9.745,320.596C9.834,320.457 9.921,320.319 10.106,320.024C12.077,316.894 13.967,315.6 18.175,315.6L21.196,315.601L21.197,203.913C21.197,198.984 22.434,194.926 24.868,190.381C24.2,189.226 23.133,187.403 22.725,186.644L22.666,186.533C21.692,184.672 21.197,183.182 21.197,181.667C21.197,178.877 23.004,176.247 25.379,175.33C21.821,174.806 18.166,172.872 15.002,169.333L13.86,168.056L14.946,166.732L15.251,166.367C18.323,162.778 21.908,160.888 25.417,160.44L25.632,160.415L25.579,160.399C23.107,159.556 21.197,156.858 21.197,153.99C21.197,152.474 21.692,150.985 22.666,149.123L22.725,149.013C23.133,148.254 24.2,146.431 24.868,145.276C22.434,140.73 21.197,136.673 21.197,131.743L21.196,20.056L18.175,20.057C13.967,20.057 12.077,18.762 10.106,15.632C9.921,15.338 9.834,15.2 9.745,15.061C8.254,12.737 6.792,11.904 2.392,11.904L0,11.904L0.001,7.904L21.196,7.904L21.196,4L6.919,4L6.919,-0L25.197,-0L25.196,7.904L29.142,7.904L29.143,-0L41.205,-0L41.205,11.904L33.142,11.904L33.142,16.056L41.133,16.057L41.134,18.056C41.16,65.122 41.179,100.562 41.191,124.376L41.192,126.119C41.192,126.979 41.193,127.824 41.193,128.653L41.194,130.289C41.194,130.558 41.194,130.826 41.194,131.092L41.195,132.664C41.195,133.44 41.196,134.2 41.196,134.943L41.197,136.41C41.197,136.65 41.197,136.89 41.197,137.127L41.198,138.529L41.198,139.215L41.199,141.141C41.199,141.376 41.199,141.609 41.199,141.84L41.2,143.201L41.2,143.863L41.201,145.978L41.201,146.384L41.202,148.704L41.203,150.823C41.203,151.047 41.203,151.268 41.203,151.485L41.204,154.458L41.205,159.035L41.2,159.518C41.134,162.874 40.382,165.767 39.139,168.134L39.243,168.339C40.4,170.67 41.108,173.455 41.196,176.622L41.205,177.169ZM37.204,327.753L33.142,327.753L33.142,331.657L37.204,331.657L37.204,327.753ZM29.142,319.601L25.196,319.601L25.196,323.753L29.142,323.753L29.142,319.601ZM18.175,319.6C15.598,319.6 14.841,320.059 13.619,321.954L13.491,322.156C13.309,322.446 13.211,322.601 13.111,322.756C12.91,323.07 12.705,323.368 12.493,323.65L12.415,323.753L21.196,323.753L21.196,319.601L18.175,319.6ZM36.378,171.844L36.314,171.906C34.286,173.835 31.775,175.022 29.073,175.372C31.393,176.322 33.143,178.921 33.143,181.667C33.143,183.182 32.648,184.672 31.673,186.533C31.32,187.209 30.175,189.165 29.469,190.371C31.815,194.756 33.05,198.68 33.138,203.365L33.143,203.909L33.142,315.601L37.135,315.601L37.135,315.083C37.159,273.083 37.176,240.507 37.188,217.355L37.189,215.498C37.19,213.968 37.19,212.481 37.191,211.038L37.192,209.326C37.192,208.48 37.193,207.65 37.193,206.835L37.194,205.226C37.194,204.432 37.195,203.654 37.195,202.891L37.196,201.385C37.196,201.138 37.196,200.892 37.196,200.648L37.197,199.204C37.197,198.967 37.197,198.732 37.197,198.498L37.198,197.117C37.198,196.89 37.198,196.665 37.198,196.441L37.199,194.515L37.199,193.816L37.2,192.455C37.2,192.232 37.2,192.011 37.2,191.793L37.201,190.09C37.201,189.814 37.201,189.541 37.201,189.272L37.202,186.952L37.203,184.833C37.203,184.609 37.203,184.388 37.203,184.171L37.204,181.198L37.204,177.168L37.2,176.815C37.163,175.255 36.949,173.82 36.586,172.523L36.46,172.095L36.378,171.844ZM27.17,194.774L27.028,195.1C25.865,197.842 25.262,200.457 25.202,203.417L25.197,203.913L25.196,315.601L29.142,315.601L29.143,203.909C29.143,200.744 28.539,197.992 27.311,195.098L27.17,194.774ZM27.183,178.988C26.333,178.984 25.197,180.292 25.197,181.667C25.197,182.4 25.509,183.338 26.21,184.678C26.362,184.967 26.7,185.561 27.089,186.233L27.169,186.374L27.251,186.233C27.596,185.636 27.902,185.1 28.072,184.785L28.129,184.678C28.831,183.338 29.143,182.4 29.143,181.667C29.143,180.3 28.021,178.992 27.183,178.988ZM34.317,167.968C30.75,163.5 24.531,162.904 19.455,167.738L19.242,167.945L19.456,168.139C24.711,172.804 30.895,172.397 34.406,168.082L34.317,167.968ZM37.135,20.056L33.142,20.056L33.143,131.748L33.138,132.292C33.05,136.977 31.815,140.9 29.469,145.286C30.175,146.492 31.32,148.448 31.673,149.123C32.648,150.985 33.143,152.474 33.143,153.99C33.143,156.824 31.278,159.503 28.846,160.374L28.66,160.436L28.878,160.465C31.591,160.855 34.129,162.114 36.188,164.112L36.411,164.334L36.497,164.071C36.953,162.591 37.205,160.907 37.205,159.035L37.204,154.459L37.203,151.485C37.203,151.268 37.203,151.048 37.203,150.824L37.202,148.705L37.201,146.385C37.201,146.116 37.201,145.843 37.201,145.567L37.2,143.864C37.2,143.645 37.2,143.425 37.2,143.202L37.199,141.841L37.199,141.142L37.198,139.215C37.198,138.992 37.198,138.767 37.198,138.54L37.197,137.159C37.197,136.925 37.197,136.689 37.197,136.452L37.196,135.009C37.196,134.765 37.196,134.519 37.196,134.272L37.195,132.766C37.195,132.003 37.194,131.224 37.194,130.43L37.193,128.822C37.193,128.007 37.192,127.177 37.192,126.331L37.191,124.619C37.19,123.175 37.19,121.688 37.189,120.158L37.188,118.302C37.176,95.15 37.159,62.573 37.135,20.573L37.135,20.056ZM27.169,149.283L27.089,149.423C26.7,150.096 26.362,150.689 26.21,150.979C25.509,152.318 25.197,153.257 25.197,153.99C25.197,155.364 26.333,156.673 27.183,156.669C28.021,156.665 29.143,155.357 29.143,153.99C29.143,153.257 28.831,152.318 28.129,150.979L28.072,150.871C27.902,150.557 27.596,150.021 27.251,149.424L27.169,149.283ZM29.142,20.056L25.196,20.056L25.197,131.743L25.202,132.24C25.262,135.2 25.865,137.815 27.028,140.557L27.17,140.883L27.311,140.558C28.539,137.665 29.143,134.913 29.143,131.748L29.142,20.056ZM29.142,11.904L25.196,11.904L25.196,16.056L29.142,16.056L29.142,11.904ZM21.196,11.904L12.415,11.904L12.493,12.007C12.705,12.289 12.91,12.587 13.111,12.9C13.211,13.056 13.309,13.211 13.491,13.501L13.619,13.702C14.841,15.597 15.598,16.057 18.175,16.057L21.196,16.056L21.196,11.904ZM37.204,4L33.142,4L33.142,7.904L37.204,7.904L37.204,4Z" style="fill:rgb(107,90,46);fill-rule:nonzero;"/>
            <path id="Path-11" d="M49.029,270.404L49.029,55.443L45.029,55.443L45.029,270.404L49.029,270.404Z" style="fill:rgb(107,90,46);fill-rule:nonzero;"/>
        </g>
    </g>
    <defs>
        <linearGradient id="_Linear1" x1="0" y1="0" x2="1" y2="0" gradientUnits="userSpaceOnUse" gradientTransform="matrix(1.21857e-15,19.9007,-19.9007,1.21857e-15,10,5.76998)"><stop offset="0" style="stop-color:rgb(187,183,220);stop-opacity:1"/><stop offset="1" style="stop-color:rgb(84,38,133);stop-opacity:1"/></linearGradient>
        <linearGradient id="_Linear2" x1="0" y1="0" x2="1" y2="0" gradientUnits="userSpaceOnUse" gradientTransform="matrix(1.40135e-15,22.8858,-22.8858,1.40135e-15,11.5,6.63548)"><stop offset="0" style="stop-color:rgb(187,183,220);stop-opacity:1"/><stop offset="1" style="stop-color:rgb(84,38,133);stop-opacity:1"/></linearGradient>
        <linearGradient id="_Linear3" x1="0" y1="0" x2="1" y2="0" gradientUnits="userSpaceOnUse" gradientTransform="matrix(1.40135e-15,22.8858,-22.8858,1.40135e-15,11.5,6.63548)"><stop offset="0" style="stop-color:rgb(187,183,220);stop-opacity:1"/><stop offset="1" style="stop-color:rgb(84,38,133);stop-opacity:1"/></linearGradient>
        <linearGradient id="_Linear4" x1="0" y1="0" x2="1" y2="0" gradientUnits="userSpaceOnUse" gradientTransform="matrix(1.34042e-15,21.8908,-21.8908,1.34042e-15,11,6.34698)"><stop offset="0" style="stop-color:rgb(187,183,220);stop-opacity:1"/><stop offset="1" style="stop-color:rgb(84,38,133);stop-opacity:1"/></linearGradient>
        <linearGradient id="_Linear5" x1="0" y1="0" x2="1" y2="0" gradientUnits="userSpaceOnUse" gradientTransform="matrix(1.2795e-15,20.8957,-20.8957,1.2795e-15,10.5,6.05848)"><stop offset="0" style="stop-color:rgb(187,183,220);stop-opacity:1"/><stop offset="1" style="stop-color:rgb(84,38,133);stop-opacity:1"/></linearGradient>
        <linearGradient id="_Linear6" x1="0" y1="0" x2="1" y2="0" gradientUnits="userSpaceOnUse" gradientTransform="matrix(1.40135e-15,22.8858,-22.8858,1.40135e-15,11.5,6.63548)"><stop offset="0" style="stop-color:rgb(187,183,220);stop-opacity:1"/><stop offset="1" style="stop-color:rgb(84,38,133);stop-opacity:1"/></linearGradient>
        <linearGradient id="_Linear7" x1="0" y1="0" x2="1" y2="0" gradientUnits="userSpaceOnUse" gradientTransform="matrix(1.15764e-15,18.9057,-18.9057,1.15764e-15,9.5,5.48149)"><stop offset="0" style="stop-color:rgb(187,183,220);stop-opacity:1"/><stop offset="1" style="stop-color:rgb(84,38,133);stop-opacity:1"/></linearGradient>
        <linearGradient id="_Linear8" x1="0" y1="0" x2="1" y2="0" gradientUnits="userSpaceOnUse" gradientTransform="matrix(1.03578e-15,16.9156,-16.9156,1.03578e-15,8.5,4.90449)"><stop offset="0" style="stop-color:rgb(187,183,220);stop-opacity:1"/><stop offset="1" style="stop-color:rgb(84,38,133);stop-opacity:1"/></linearGradient>
        <linearGradient id="_Linear9" x1="0" y1="0" x2="1" y2="0" gradientUnits="userSpaceOnUse" gradientTransform="matrix(1.09671e-15,17.9106,-17.9106,1.09671e-15,9,5.19299)"><stop offset="0" style="stop-color:rgb(187,183,220);stop-opacity:1"/><stop offset="1" style="stop-color:rgb(84,38,133);stop-opacity:1"/></linearGradient>
        <linearGradient id="_Linear10" x1="0" y1="0" x2="1" y2="0" gradientUnits="userSpaceOnUse" gradientTransform="matrix(9.74854e-16,15.9206,-15.9206,9.74854e-16,8,4.61599)"><stop offset="0" style="stop-color:rgb(187,183,220);stop-opacity:1"/><stop offset="1" style="stop-color:rgb(84,38,133);stop-opacity:1"/></linearGradient>
        <linearGradient id="_Linear11" x1="0" y1="0" x2="1" y2="0" gradientUnits="userSpaceOnUse" gradientTransform="matrix(1.15764e-15,18.9057,-18.9057,1.15764e-15,9.5,5.48149)"><stop offset="0" style="stop-color:rgb(187,183,220);stop-opacity:1"/><stop offset="1" style="stop-color:rgb(84,38,133);stop-opacity:1"/></linearGradient>
        <linearGradient id="_Linear12" x1="0" y1="0" x2="1" y2="0" gradientUnits="userSpaceOnUse" gradientTransform="matrix(7.3114e-16,11.9404,-11.9404,7.3114e-16,6,3.46199)"><stop offset="0" style="stop-color:rgb(187,183,220);stop-opacity:1"/><stop offset="1" style="stop-color:rgb(84,38,133);stop-opacity:1"/></linearGradient>
        <linearGradient id="_Linear13" x1="0" y1="0" x2="1" y2="0" gradientUnits="userSpaceOnUse" gradientTransform="matrix(1.03578e-15,16.9156,-16.9156,1.03578e-15,8.5,4.90449)"><stop offset="0" style="stop-color:rgb(187,183,220);stop-opacity:1"/><stop offset="1" style="stop-color:rgb(84,38,133);stop-opacity:1"/></linearGradient>
        <linearGradient id="_Linear14" x1="0" y1="0" x2="1" y2="0" gradientUnits="userSpaceOnUse" gradientTransform="matrix(1.03578e-15,16.9156,-16.9156,1.03578e-15,8.5,4.90449)"><stop offset="0" style="stop-color:rgb(187,183,220);stop-opacity:1"/><stop offset="1" style="stop-color:rgb(84,38,133);stop-opacity:1"/></linearGradient>
        <linearGradient id="_Linear15" x1="0" y1="0" x2="1" y2="0" gradientUnits="userSpaceOnUse" gradientTransform="matrix(1.35051e-15,22.0555,-22.0555,1.35051e-15,11.0828,6.39474)"><stop offset="0" style="stop-color:rgb(187,183,220);stop-opacity:1"/><stop offset="1" style="stop-color:rgb(84,38,133);stop-opacity:1"/></linearGradient>
        <linearGradient id="_Linear16" x1="0" y1="0" x2="1" y2="0" gradientUnits="userSpaceOnUse" gradientTransform="matrix(1.41144e-15,23.0505,-23.0505,1.41144e-15,11.5828,6.68324)"><stop offset="0" style="stop-color:rgb(187,183,220);stop-opacity:1"/><stop offset="1" style="stop-color:rgb(84,38,133);stop-opacity:1"/></linearGradient>
        <linearGradient id="_Linear17" x1="0" y1="0" x2="1" y2="0" gradientUnits="userSpaceOnUse" gradientTransform="matrix(1.41144e-15,23.0505,-23.0505,1.41144e-15,11.5828,6.68324)"><stop offset="0" style="stop-color:rgb(187,183,220);stop-opacity:1"/><stop offset="1" style="stop-color:rgb(84,38,133);stop-opacity:1"/></linearGradient>
        <linearGradient id="_Linear18" x1="0" y1="0" x2="1" y2="0" gradientUnits="userSpaceOnUse" gradientTransform="matrix(1.28958e-15,21.0605,-21.0605,1.28958e-15,10.5828,6.10624)"><stop offset="0" style="stop-color:rgb(187,183,220);stop-opacity:1"/><stop offset="1" style="stop-color:rgb(84,38,133);stop-opacity:1"/></linearGradient>
        <linearGradient id="_Linear19" x1="0" y1="0" x2="1" y2="0" gradientUnits="userSpaceOnUse" gradientTransform="matrix(1.16772e-15,19.0704,-19.0704,1.16772e-15,9.58277,5.52924)"><stop offset="0" style="stop-color:rgb(187,183,220);stop-opacity:1"/><stop offset="1" style="stop-color:rgb(84,38,133);stop-opacity:1"/></linearGradient>
        <linearGradient id="_Linear20" x1="0" y1="0" x2="1" y2="0" gradientUnits="userSpaceOnUse" gradientTransform="matrix(1.47237e-15,24.0456,-24.0456,1.47237e-15,12.0828,6.97174)"><stop offset="0" style="stop-color:rgb(187,183,220);stop-opacity:1"/><stop offset="1" style="stop-color:rgb(84,38,133);stop-opacity:1"/></linearGradient>
        <linearGradient id="_Linear21" x1="0" y1="0" x2="1" y2="0" gradientUnits="userSpaceOnUse" gradientTransform="matrix(1.1068e-15,18.0754,-18.0754,1.1068e-15,9.08277,5.24074)"><stop offset="0" style="stop-color:rgb(187,183,220);stop-opacity:1"/><stop offset="1" style="stop-color:rgb(84,38,133);stop-opacity:1"/></linearGradient>
        <linearGradient id="_Linear22" x1="0" y1="0" x2="1" y2="0" gradientUnits="userSpaceOnUse" gradientTransform="matrix(1.16772e-15,19.0704,-19.0704,1.16772e-15,9.58277,5.52924)"><stop offset="0" style="stop-color:rgb(187,183,220);stop-opacity:1"/><stop offset="1" style="stop-color:rgb(84,38,133);stop-opacity:1"/></linearGradient>
        <linearGradient id="_Linear23" x1="0" y1="0" x2="1" y2="0" gradientUnits="userSpaceOnUse" gradientTransform="matrix(9.24011e-16,15.0902,-15.0902,9.24011e-16,7.58277,4.37525)"><stop offset="0" style="stop-color:rgb(187,183,220);stop-opacity:1"/><stop offset="1" style="stop-color:rgb(84,38,133);stop-opacity:1"/></linearGradient>
        <linearGradient id="_Linear24" x1="0" y1="0" x2="1" y2="0" gradientUnits="userSpaceOnUse" gradientTransform="matrix(1.22865e-15,20.0654,-20.0654,1.22865e-15,10.0828,5.81774)"><stop offset="0" style="stop-color:rgb(187,183,220);stop-opacity:1"/><stop offset="1" style="stop-color:rgb(84,38,133);stop-opacity:1"/></linearGradient>
        <linearGradient id="_Linear25" x1="0" y1="0" x2="1" y2="0" gradientUnits="userSpaceOnUse" gradientTransform="matrix(1.28958e-15,21.0605,-21.0605,1.28958e-15,10.5828,6.10624)"><stop offset="0" style="stop-color:rgb(187,183,220);stop-opacity:1"/><stop offset="1" style="stop-color:rgb(84,38,133);stop-opacity:1"/></linearGradient>
        <linearGradient id="_Linear26" x1="0" y1="0" x2="1" y2="0" gradientUnits="userSpaceOnUse" gradientTransform="matrix(9.24011e-16,15.0902,-15.0902,9.24011e-16,7.58277,4.37525)"><stop offset="0" style="stop-color:rgb(187,183,220);stop-opacity:1"/><stop offset="1" style="stop-color:rgb(84,38,133);stop-opacity:1"/></linearGradient>
        <linearGradient id="_Linear27" x1="0" y1="0" x2="1" y2="0" gradientUnits="userSpaceOnUse" gradientTransform="matrix(9.8494e-16,16.0853,-16.0853,9.8494e-16,8.08277,4.66375)"><stop offset="0" style="stop-color:rgb(187,183,220);stop-opacity:1"/><stop offset="1" style="stop-color:rgb(84,38,133);stop-opacity:1"/></linearGradient>
        <linearGradient id="_Linear28" x1="0" y1="0" x2="1" y2="0" gradientUnits="userSpaceOnUse" gradientTransform="matrix(9.24011e-16,15.0902,-15.0902,9.24011e-16,7.58277,4.37525)"><stop offset="0" style="stop-color:rgb(187,183,220);stop-opacity:1"/><stop offset="1" style="stop-color:rgb(84,38,133);stop-opacity:1"/></linearGradient>
        <linearGradient id="_Linear29" x1="0" y1="0" x2="1" y2="0" gradientUnits="userSpaceOnUse" gradientTransform="matrix(1.28958e-15,21.0605,-21.0605,1.28958e-15,10.5828,6.10624)"><stop offset="0" style="stop-color:rgb(187,183,220);stop-opacity:1"/><stop offset="1" style="stop-color:rgb(84,38,133);stop-opacity:1"/></linearGradient>
        <linearGradient id="_Linear30" x1="0" y1="0" x2="1" y2="0" gradientUnits="userSpaceOnUse" gradientTransform="matrix(7.92069e-16,12.9355,-12.9355,7.92069e-16,6.5,3.75049)"><stop offset="0" style="stop-color:rgb(187,183,220);stop-opacity:1"/><stop offset="1" style="stop-color:rgb(84,38,133);stop-opacity:1"/></linearGradient>
        <linearGradient id="_Linear31" x1="0" y1="0" x2="1" y2="0" gradientUnits="userSpaceOnUse" gradientTransform="matrix(7.92069e-16,12.9355,-12.9355,7.92069e-16,6.5,3.75049)"><stop offset="0" style="stop-color:rgb(187,183,220);stop-opacity:1"/><stop offset="1" style="stop-color:rgb(84,38,133);stop-opacity:1"/></linearGradient>
        <linearGradient id="_Linear32" x1="0" y1="0" x2="1" y2="0" gradientUnits="userSpaceOnUse" gradientTransform="matrix(7.92069e-16,12.9355,-12.9355,7.92069e-16,6.5,3.75049)"><stop offset="0" style="stop-color:rgb(187,183,220);stop-opacity:1"/><stop offset="1" style="stop-color:rgb(84,38,133);stop-opacity:1"/></linearGradient>
        <linearGradient id="_Linear33" x1="0" y1="0" x2="1" y2="0" gradientUnits="userSpaceOnUse" gradientTransform="matrix(9.75368e-16,15.929,-15.929,9.75368e-16,8.00422,4.61842)"><stop offset="0" style="stop-color:rgb(187,183,220);stop-opacity:1"/><stop offset="1" style="stop-color:rgb(84,38,133);stop-opacity:1"/></linearGradient>
        <linearGradient id="_Linear34" x1="0" y1="0" x2="1" y2="0" gradientUnits="userSpaceOnUse" gradientTransform="matrix(1.0363e-15,16.924,-16.924,1.0363e-15,8.50422,4.90692)"><stop offset="0" style="stop-color:rgb(187,183,220);stop-opacity:1"/><stop offset="1" style="stop-color:rgb(84,38,133);stop-opacity:1"/></linearGradient>
        <linearGradient id="_Linear35" x1="0" y1="0" x2="1" y2="0" gradientUnits="userSpaceOnUse" gradientTransform="matrix(9.75368e-16,15.929,-15.929,9.75368e-16,8.00422,4.61842)"><stop offset="0" style="stop-color:rgb(187,183,220);stop-opacity:1"/><stop offset="1" style="stop-color:rgb(84,38,133);stop-opacity:1"/></linearGradient>
        <linearGradient id="_Linear36" x1="0" y1="0" x2="1" y2="0" gradientUnits="userSpaceOnUse" gradientTransform="matrix(9.74854e-16,15.9206,-15.9206,9.74854e-16,8,4.61599)"><stop offset="0" style="stop-color:rgb(187,183,220);stop-opacity:1"/><stop offset="1" style="stop-color:rgb(84,38,133);stop-opacity:1"/></linearGradient>
        <linearGradient id="_Linear37" x1="0" y1="0" x2="1" y2="0" gradientUnits="userSpaceOnUse" gradientTransform="matrix(7.3114e-16,11.9404,-11.9404,7.3114e-16,6,3.46199)"><stop offset="0" style="stop-color:rgb(187,183,220);stop-opacity:1"/><stop offset="1" style="stop-color:rgb(84,38,133);stop-opacity:1"/></linearGradient>
        <linearGradient id="_Linear38" x1="0" y1="0" x2="1" y2="0" gradientUnits="userSpaceOnUse" gradientTransform="matrix(1.42554e-15,23.2808,-23.2808,1.42554e-15,11.6985,6.75)"><stop offset="0" style="stop-color:rgb(187,183,220);stop-opacity:1"/><stop offset="1" style="stop-color:rgb(84,38,133);stop-opacity:1"/></linearGradient>
        <linearGradient id="_Linear39" x1="0" y1="0" x2="1" y2="0" gradientUnits="userSpaceOnUse" gradientTransform="matrix(8.16255e-16,13.3304,-13.3304,8.16255e-16,6.69848,3.86501)"><stop offset="0" style="stop-color:rgb(187,183,220);stop-opacity:1"/><stop offset="1" style="stop-color:rgb(84,38,133);stop-opacity:1"/></linearGradient>
        <linearGradient id="_Linear40" x1="0" y1="0" x2="1" y2="0" gradientUnits="userSpaceOnUse" gradientTransform="matrix(1.60832e-15,26.2659,-26.2659,1.60832e-15,13.1985,7.6155)"><stop offset="0" style="stop-color:rgb(187,183,220);stop-opacity:1"/><stop offset="1" style="stop-color:rgb(84,38,133);stop-opacity:1"/></linearGradient>
        <linearGradient id="_Linear41" x1="0" y1="0" x2="1" y2="0" gradientUnits="userSpaceOnUse" gradientTransform="matrix(1.30368e-15,21.2907,-21.2907,1.30368e-15,10.6985,6.17301)"><stop offset="0" style="stop-color:rgb(187,183,220);stop-opacity:1"/><stop offset="1" style="stop-color:rgb(84,38,133);stop-opacity:1"/></linearGradient>
        <linearGradient id="_Linear42" x1="0" y1="0" x2="1" y2="0" gradientUnits="userSpaceOnUse" gradientTransform="matrix(1.15764e-15,18.9057,-18.9057,1.15764e-15,9.5,5.48149)"><stop offset="0" style="stop-color:rgb(187,183,220);stop-opacity:1"/><stop offset="1" style="stop-color:rgb(84,38,133);stop-opacity:1"/></linearGradient>
        <linearGradient id="_Linear43" x1="0" y1="0" x2="1" y2="0" gradientUnits="userSpaceOnUse" gradientTransform="matrix(1.03578e-15,16.9156,-16.9156,1.03578e-15,8.5,4.90449)"><stop offset="0" style="stop-color:rgb(187,183,220);stop-opacity:1"/><stop offset="1" style="stop-color:rgb(84,38,133);stop-opacity:1"/></linearGradient>
        <linearGradient id="_Linear44" x1="0" y1="0" x2="1" y2="0" gradientUnits="userSpaceOnUse" gradientTransform="matrix(1.03578e-15,16.9156,-16.9156,1.03578e-15,8.5,4.90449)"><stop offset="0" style="stop-color:rgb(187,183,220);stop-opacity:1"/><stop offset="1" style="stop-color:rgb(84,38,133);stop-opacity:1"/></linearGradient>
        <linearGradient id="_Linear45" x1="0" y1="0" x2="1" y2="0" gradientUnits="userSpaceOnUse" gradientTransform="matrix(1.15764e-15,18.9057,-18.9057,1.15764e-15,9.5,5.48149)"><stop offset="0" style="stop-color:rgb(187,183,220);stop-opacity:1"/><stop offset="1" style="stop-color:rgb(84,38,133);stop-opacity:1"/></linearGradient>
        <linearGradient id="_Linear46" x1="0" y1="0" x2="1" y2="0" gradientUnits="userSpaceOnUse" gradientTransform="matrix(9.13925e-16,14.9255,-14.9255,9.13925e-16,7.5,4.32749)"><stop offset="0" style="stop-color:rgb(187,183,220);stop-opacity:1"/><stop offset="1" style="stop-color:rgb(84,38,133);stop-opacity:1"/></linearGradient>
        <linearGradient id="_Linear47" x1="0" y1="0" x2="1" y2="0" gradientUnits="userSpaceOnUse" gradientTransform="matrix(9.13925e-16,14.9255,-14.9255,9.13925e-16,7.5,4.32749)"><stop offset="0" style="stop-color:rgb(187,183,220);stop-opacity:1"/><stop offset="1" style="stop-color:rgb(84,38,133);stop-opacity:1"/></linearGradient>
        <linearGradient id="_Linear48" x1="0" y1="0" x2="1" y2="0" gradientUnits="userSpaceOnUse" gradientTransform="matrix(1.03578e-15,16.9156,-16.9156,1.03578e-15,8.5,4.90449)"><stop offset="0" style="stop-color:rgb(187,183,220);stop-opacity:1"/><stop offset="1" style="stop-color:rgb(84,38,133);stop-opacity:1"/></linearGradient>
    </defs>
</svg>
